<svg width="18" height="18" viewBox="0 0 18 18" fill="none" xmlns="http://www.w3.org/2000/svg">
<path d="M14.9701 6.72005C14.4676 6.16505 13.7101 5.84255 12.6601 5.73005V5.16005C12.6601 4.13255 12.2251 3.14255 11.4601 2.45255C10.6876 1.74755 9.68255 1.41755 8.64005 1.51505C6.84755 1.68755 5.34005 3.42005 5.34005 5.29505V5.73005C4.29005 5.84255 3.53255 6.16505 3.03005 6.72005C2.30255 7.53005 2.32505 8.61005 2.40755 9.36005L2.93255 13.5375C3.09005 15 3.68255 16.5 6.90755 16.5H11.0926C14.3176 16.5 14.9101 15 15.0676 13.545L15.5926 9.35255C15.6751 8.61005 15.6901 7.53005 14.9701 6.72005ZM8.74505 2.55755C9.49505 2.49005 10.2076 2.72255 10.7626 3.22505C11.3101 3.72005 11.6176 4.42505 11.6176 5.16005V5.68505H6.38255V5.29505C6.38255 3.96005 7.48505 2.67755 8.74505 2.55755ZM6.31505 9.86255H6.30755C5.89505 9.86255 5.55755 9.52505 5.55755 9.11255C5.55755 8.70005 5.89505 8.36255 6.30755 8.36255C6.72755 8.36255 7.06505 8.70005 7.06505 9.11255C7.06505 9.52505 6.72755 9.86255 6.31505 9.86255ZM11.5651 9.86255H11.5576C11.1451 9.86255 10.8076 9.52505 10.8076 9.11255C10.8076 8.70005 11.1451 8.36255 11.5576 8.36255C11.9776 8.36255 12.3151 8.70005 12.3151 9.11255C12.3151 9.52505 11.9776 9.86255 11.5651 9.86255Z" fill="#6B6AFD"/>
</svg>
