<svg width="16" height="16" viewBox="0 0 16 16" fill="none" xmlns="http://www.w3.org/2000/svg">
<path d="M13.0199 3.68683L3.68659 13.0202C3.67325 13.0335 3.66659 13.0402 3.65325 13.0468C3.39992 12.8335 3.16659 12.6002 2.95325 12.3468C1.93992 11.1802 1.33325 9.66016 1.33325 8.00016C1.33325 4.32016 4.31992 1.3335 7.99992 1.3335C9.65992 1.3335 11.1799 1.94016 12.3466 2.9535C12.5999 3.16683 12.8333 3.40016 13.0466 3.6535C13.0399 3.66683 13.0333 3.6735 13.0199 3.68683Z" fill="#666F8B" fill-opacity="0.4"/>
<path d="M14.6666 7.99991C14.6666 11.6599 11.6599 14.6666 7.99991 14.6666C6.99991 14.6666 6.05324 14.4466 5.19991 14.0466C4.78657 13.8532 4.70657 13.2999 5.02657 12.9732L12.9732 5.02657C13.2932 4.70657 13.8532 4.78657 14.0466 5.19991C14.4466 6.04657 14.6666 6.99991 14.6666 7.99991Z" fill="#666F8B" fill-opacity="0.4"/>
<path d="M14.5133 1.48643C14.3133 1.28643 13.9867 1.28643 13.7867 1.48643L1.48667 13.7931C1.28667 13.9931 1.28667 14.3198 1.48667 14.5198C1.58667 14.6131 1.71334 14.6664 1.84667 14.6664C1.98 14.6664 2.10667 14.6131 2.20667 14.5131L14.5133 2.20643C14.72 2.00643 14.72 1.68643 14.5133 1.48643Z" fill="#666F8B" fill-opacity="0.4"/>
</svg>
