<svg width="12" height="12" viewBox="0 0 12 12" fill="none" xmlns="http://www.w3.org/2000/svg">
<path d="M8.095 1H3.905C2.085 1 1 2.085 1 3.905V8.09C1 9.915 2.085 11 3.905 11H8.09C9.91 11 10.995 9.915 10.995 8.095V3.905C11 2.085 9.915 1 8.095 1ZM5.475 8.755C5.33 8.9 5.055 9.04 4.855 9.07L3.625 9.245C3.58 9.25 3.535 9.255 3.49 9.255C3.285 9.255 3.095 9.185 2.96 9.05C2.795 8.885 2.725 8.645 2.765 8.38L2.94 7.15C2.97 6.945 3.105 6.675 3.255 6.53L5.485 4.3C5.525 4.405 5.565 4.51 5.62 4.63C5.67 4.735 5.725 4.845 5.785 4.945C5.835 5.03 5.89 5.11 5.935 5.17C5.99 5.255 6.055 5.335 6.095 5.38C6.12 5.415 6.14 5.44 6.15 5.45C6.275 5.6 6.42 5.74 6.545 5.845C6.58 5.88 6.6 5.9 6.61 5.905C6.685 5.965 6.76 6.025 6.825 6.07C6.905 6.13 6.985 6.185 7.07 6.23C7.17 6.29 7.28 6.345 7.39 6.4C7.505 6.45 7.61 6.495 7.715 6.53L5.475 8.755ZM8.685 5.545L8.225 6.01C8.195 6.04 8.155 6.055 8.115 6.055C8.1 6.055 8.08 6.055 8.07 6.05C7.055 5.76 6.245 4.95 5.955 3.935C5.94 3.88 5.955 3.82 5.995 3.785L6.46 3.32C7.22 2.56 7.945 2.575 8.69 3.32C9.07 3.7 9.255 4.065 9.255 4.445C9.25 4.805 9.065 5.165 8.685 5.545Z" fill="#6B6AFD"/>
</svg>
