<svg width="38" height="38" viewBox="0 0 38 38" fill="none" xmlns="http://www.w3.org/2000/svg">
<path d="M34.8651 26.6321L29.9093 15.0421C29.0068 12.9204 27.6609 11.7171 26.1251 11.6379C24.6051 11.5588 23.1326 12.6196 22.0084 14.6463L19.0001 20.0454C18.3668 21.1854 17.4643 21.8663 16.4826 21.9454C15.4851 22.0404 14.4876 21.5179 13.6801 20.4888L13.3318 20.0454C12.2076 18.6363 10.8143 17.9554 9.38926 18.0979C7.96426 18.2404 6.7451 19.2221 5.9376 20.8213L3.19843 26.2838C2.21676 28.2629 2.31176 30.5588 3.4676 32.4271C4.62343 34.2954 6.63426 35.4196 8.8351 35.4196H29.0384C31.1601 35.4196 33.1393 34.3588 34.3109 32.5854C35.5143 30.8121 35.7043 28.5796 34.8651 26.6321Z" fill="#6B6AFD"/>
<path d="M11.0357 13.2688C13.9914 13.2688 16.3874 10.8727 16.3874 7.9171C16.3874 4.96145 13.9914 2.56543 11.0357 2.56543C8.0801 2.56543 5.68408 4.96145 5.68408 7.9171C5.68408 10.8727 8.0801 13.2688 11.0357 13.2688Z" fill="#6B6AFD"/>
</svg>
