<svg width="12" height="24" viewBox="0 0 12 24" fill="none" xmlns="http://www.w3.org/2000/svg">
<path d="M0.084041 4.23882C0.149943 3.22566 0.58184 2.38218 1.30163 1.63024C1.94272 0.960519 2.74562 0.537198 3.67271 0.260129C5.44374 -0.269162 7.09073 0.0305335 8.55088 0.965803C9.63349 1.65924 10.3207 2.64266 10.482 3.85554C10.5135 4.09235 10.5469 4.33083 10.5478 4.56863C10.5537 6.08602 10.5508 7.60344 10.5508 9.09952C10.8093 9.15639 11.0526 9.19209 11.2813 9.2638C11.813 9.4305 12.0921 9.87275 11.9729 10.3683C11.8914 10.7069 11.4784 11.1236 10.9029 11.1215C7.65233 11.1097 4.40169 11.1176 1.15108 11.1166C0.357849 11.1164 0.0450008 10.7522 0.0205775 10.1314C-0.0149751 9.22777 0.00413018 8.32215 0.0146075 7.41749C0.0196748 6.98011 0.0112516 6.64358 0.0146075 6.20624C0.0170335 5.88983 0.0170732 5.4727 0.0167974 5.15612C0.0165383 4.85981 0.0596051 4.56347 0.084041 4.23882ZM3.88076 9.14455C5.2371 9.14606 6.59354 9.14069 7.94973 9.1542C8.26531 9.15734 8.37973 9.08914 8.3751 8.7881C8.35533 7.50231 8.37767 6.21605 8.36285 4.93015C8.35348 4.11737 8.13721 3.38672 7.4369 2.77131C6.65642 2.08546 5.74587 1.83837 4.72204 2.02802C3.12082 2.32461 2.30039 3.43319 2.27154 4.73924C2.25401 5.53266 2.26798 6.32662 2.26786 7.12035C2.26777 7.68298 2.26833 8.24562 2.26746 8.80826C2.26715 9.01517 2.30102 9.16883 2.61588 9.15076C3.01312 9.12796 3.41335 9.14547 3.88076 9.14455Z" fill="#0E0636"/>
<path d="M2.31184 12.825C5.15903 12.8295 7.97604 12.8311 10.793 12.8334C11.57 12.8341 11.9849 13.2021 11.9848 13.8868C11.9847 15.647 11.9708 17.4073 11.9899 19.1674C12.0022 20.3025 11.6243 21.3304 10.845 22.2059C10.0544 23.0942 8.9791 23.6551 7.71491 23.8952C6.11774 24.1985 4.69127 23.8283 3.40524 22.9879C2.55972 22.4354 1.99982 21.6782 1.63671 20.8249C1.4745 20.4437 1.41221 20.0103 1.40726 19.5995C1.38376 17.6487 1.38948 15.6974 1.39912 13.7464C1.40162 13.2406 1.77302 12.9714 2.31184 12.825ZM6.80994 21.996C6.89596 21.9798 6.98118 21.9552 7.06812 21.9488C8.50388 21.8441 9.74559 20.6774 9.74505 19.3957C9.74443 17.9481 9.74416 16.5005 9.74374 15.0529C9.74371 14.9465 9.74374 14.8402 9.74374 14.7454C7.68301 14.7454 5.66942 14.7454 3.69799 14.7454C3.69799 16.4589 3.69788 18.1522 3.69862 19.8454C3.69864 19.8853 3.70064 19.9273 3.71426 19.9648C4.17962 21.2447 5.24451 21.9612 6.80994 21.996Z" fill="#0E0636"/>
</svg>
