<svg width="48" height="48" viewBox="0 0 48 48" fill="none" xmlns="http://www.w3.org/2000/svg">
<g opacity="0.6">
<rect width="48" height="48" rx="24" fill="#666F8B"/>
<path d="M32.97 13H30.03C29.16 13 28.52 13.36 28.23 14C28.07 14.29 28 14.63 28 15.03V17.97C28 19.24 28.76 20 30.03 20H32.97C33.37 20 33.71 19.93 34 19.77C34.64 19.48 35 18.84 35 17.97V15.03C35 13.76 34.24 13 32.97 13ZM33.91 16.93C33.81 17.03 33.66 17.1 33.5 17.11H32.09V17.62L32.1 18.5C32.09 18.67 32.03 18.81 31.91 18.93C31.81 19.03 31.66 19.1 31.5 19.1C31.17 19.1 30.9 18.83 30.9 18.5V17.1L29.5 17.11C29.17 17.11 28.9 16.83 28.9 16.5C28.9 16.17 29.17 15.9 29.5 15.9L30.38 15.91H30.9V14.51C30.9 14.18 31.17 13.9 31.5 13.9C31.83 13.9 32.1 14.18 32.1 14.51L32.09 15.22V15.9H33.5C33.83 15.9 34.1 16.17 34.1 16.5C34.09 16.67 34.02 16.81 33.91 16.93Z" fill="white"/>
<path d="M21.0001 22.3801C22.3146 22.3801 23.3801 21.3146 23.3801 20.0001C23.3801 18.6857 22.3146 17.6201 21.0001 17.6201C19.6857 17.6201 18.6201 18.6857 18.6201 20.0001C18.6201 21.3146 19.6857 22.3801 21.0001 22.3801Z" fill="white"/>
<path d="M32.97 20H32.5V24.61L32.37 24.5C31.59 23.83 30.33 23.83 29.55 24.5L25.39 28.07C24.61 28.74 23.35 28.74 22.57 28.07L22.23 27.79C21.52 27.17 20.39 27.11 19.59 27.65L15.85 30.16C15.63 29.6 15.5 28.95 15.5 28.19V19.81C15.5 16.99 16.99 15.5 19.81 15.5H28V15.03C28 14.63 28.07 14.29 28.23 14H19.81C16.17 14 14 16.17 14 19.81V28.19C14 29.28 14.19 30.23 14.56 31.03C15.42 32.93 17.26 34 19.81 34H28.19C31.83 34 34 31.83 34 28.19V19.77C33.71 19.93 33.37 20 32.97 20Z" fill="white"/>
</g>
</svg>
