<svg width="183" height="167" viewBox="0 0 183 167" fill="none" xmlns="http://www.w3.org/2000/svg">
<path d="M21.0701 14.2915H14.9723V20.3893H21.0701V14.2915Z" fill="black"/>
<path d="M27.1678 14.2915H21.0701V20.3893H27.1678V14.2915Z" fill="black"/>
<path d="M33.2656 14.2915H27.1678V20.3893H33.2656V14.2915Z" fill="black"/>
<path d="M39.3634 14.2915H33.2656V20.3893H39.3634V14.2915Z" fill="black"/>
<path d="M45.4612 14.2915H39.3634V20.3893H45.4612V14.2915Z" fill="black"/>
<path d="M51.559 14.2915H45.4612V20.3893H51.559V14.2915Z" fill="black"/>
<path d="M57.6567 14.2915H51.559V20.3893H57.6567V14.2915Z" fill="black"/>
<path d="M69.8523 14.2915H63.7545V20.3893H69.8523V14.2915Z" fill="black"/>
<path d="M75.9501 14.2915H69.8523V20.3893H75.9501V14.2915Z" fill="black"/>
<path d="M100.341 14.2915H94.2434V20.3893H100.341V14.2915Z" fill="black"/>
<path d="M118.635 14.2915H112.537V20.3893H118.635V14.2915Z" fill="black"/>
<path d="M130.83 14.2915H124.732V20.3893H130.83V14.2915Z" fill="black"/>
<path d="M136.928 14.2915H130.83V20.3893H136.928V14.2915Z" fill="black"/>
<path d="M143.026 14.2915H136.928V20.3893H143.026V14.2915Z" fill="black"/>
<path d="M149.123 14.2915H143.026V20.3893H149.123V14.2915Z" fill="black"/>
<path d="M155.221 14.2915H149.123V20.3893H155.221V14.2915Z" fill="black"/>
<path d="M161.319 14.2915H155.221V20.3893H161.319V14.2915Z" fill="black"/>
<path d="M167.417 14.2915H161.319V20.3893H167.417V14.2915Z" fill="black"/>
<path d="M21.0701 20.3893H14.9723V26.4871H21.0701V20.3893Z" fill="black"/>
<path d="M57.6567 20.3893H51.559L51.559 26.4871H57.6567V20.3893Z" fill="black"/>
<path d="M94.2434 20.3893H88.1456V26.4871H94.2434V20.3893Z" fill="black"/>
<path d="M100.341 20.3893H94.2434V26.4871H100.341V20.3893Z" fill="black"/>
<path d="M118.635 20.3893H112.537V26.4871H118.635V20.3893Z" fill="black"/>
<path d="M130.83 20.3893H124.732V26.4871H130.83V20.3893Z" fill="black"/>
<path d="M167.417 20.3893H161.319V26.4871H167.417V20.3893Z" fill="black"/>
<path d="M21.0701 26.4871H14.9723V32.5848H21.0701V26.4871Z" fill="black"/>
<path d="M33.2656 26.4871H27.1678V32.5848H33.2656V26.4871Z" fill="black"/>
<path d="M39.3634 26.4871H33.2656V32.5848H39.3634V26.4871Z" fill="black"/>
<path d="M45.4612 26.4871H39.3634V32.5848H45.4612V26.4871Z" fill="black"/>
<path d="M57.6567 26.4871H51.559V32.5848H57.6567V26.4871Z" fill="black"/>
<path d="M75.9501 26.4871H69.8523V32.5848H75.9501V26.4871Z" fill="black"/>
<path d="M82.0478 26.4871H75.9501V32.5848H82.0478V26.4871Z" fill="black"/>
<path d="M88.1456 26.4871H82.0478V32.5848H88.1456V26.4871Z" fill="black"/>
<path d="M94.2434 26.4871H88.1456V32.5848H94.2434V26.4871Z" fill="black"/>
<path d="M100.341 26.4871H94.2434V32.5848H100.341V26.4871Z" fill="black"/>
<path d="M118.635 26.4871H112.537V32.5848H118.635V26.4871Z" fill="black"/>
<path d="M130.83 26.4871H124.732V32.5848H130.83V26.4871Z" fill="black"/>
<path d="M143.026 26.4871H136.928V32.5848H143.026V26.4871Z" fill="black"/>
<path d="M149.123 26.4871H143.026V32.5848H149.123V26.4871Z" fill="black"/>
<path d="M155.221 26.4871H149.123V32.5848H155.221V26.4871Z" fill="black"/>
<path d="M167.417 26.4871H161.319V32.5848H167.417V26.4871Z" fill="black"/>
<path d="M21.0701 32.5848H14.9723V38.6826H21.0701V32.5848Z" fill="black"/>
<path d="M33.2656 32.5848H27.1678V38.6826H33.2656V32.5848Z" fill="black"/>
<path d="M39.3634 32.5848H33.2656V38.6826H39.3634V32.5848Z" fill="black"/>
<path d="M45.4612 32.5848H39.3634V38.6826H45.4612V32.5848Z" fill="black"/>
<path d="M57.6567 32.5848H51.559V38.6826H57.6567V32.5848Z" fill="black"/>
<path d="M75.9501 32.5848H69.8523V38.6826H75.9501V32.5848Z" fill="black"/>
<path d="M82.0478 32.5848H75.9501V38.6826H82.0478V32.5848Z" fill="black"/>
<path d="M100.341 32.5848H94.2434V38.6826H100.341V32.5848Z" fill="black"/>
<path d="M130.83 32.5848H124.732V38.6826H130.83V32.5848Z" fill="black"/>
<path d="M143.026 32.5848H136.928V38.6826H143.026V32.5848Z" fill="black"/>
<path d="M149.123 32.5848H143.026V38.6826H149.123V32.5848Z" fill="black"/>
<path d="M155.221 32.5848H149.123V38.6826H155.221V32.5848Z" fill="black"/>
<path d="M167.417 32.5848H161.319V38.6826H167.417V32.5848Z" fill="black"/>
<path d="M21.0701 38.6826H14.9723V44.7804H21.0701V38.6826Z" fill="black"/>
<path d="M33.2656 38.6826H27.1678V44.7804H33.2656V38.6826Z" fill="black"/>
<path d="M39.3634 38.6826H33.2656V44.7804H39.3634V38.6826Z" fill="black"/>
<path d="M45.4612 38.6826H39.3634V44.7804H45.4612V38.6826Z" fill="black"/>
<path d="M57.6567 38.6826H51.559V44.7804H57.6567V38.6826Z" fill="black"/>
<path d="M69.8523 38.6826H63.7545V44.7804H69.8523V38.6826Z" fill="black"/>
<path d="M82.0478 38.6826H75.9501V44.7804H82.0478V38.6826Z" fill="black"/>
<path d="M88.1456 38.6826H82.0478V44.7804H88.1456V38.6826Z" fill="black"/>
<path d="M94.2434 38.6826H88.1456V44.7804H94.2434V38.6826Z" fill="black"/>
<path d="M106.439 38.6826H100.341V44.7804H106.439V38.6826Z" fill="black"/>
<path d="M130.83 38.6826H124.732V44.7804H130.83V38.6826Z" fill="black"/>
<path d="M143.026 38.6826H136.928V44.7804H143.026V38.6826Z" fill="black"/>
<path d="M149.123 38.6826H143.026V44.7804H149.123V38.6826Z" fill="black"/>
<path d="M155.221 38.6826H149.123V44.7804H155.221V38.6826Z" fill="black"/>
<path d="M167.417 38.6826H161.319V44.7804H167.417V38.6826Z" fill="black"/>
<path d="M21.0701 44.7804H14.9723V50.8782H21.0701V44.7804Z" fill="black"/>
<path d="M57.6567 44.7804H51.559V50.8782H57.6567V44.7804Z" fill="black"/>
<path d="M106.439 44.7804H100.341V50.8782H106.439V44.7804Z" fill="black"/>
<path d="M130.83 44.7804H124.732V50.8782H130.83V44.7804Z" fill="black"/>
<path d="M167.417 44.7804H161.319V50.8782H167.417V44.7804Z" fill="black"/>
<path d="M21.0701 50.8782H14.9723V56.9759H21.0701V50.8782Z" fill="black"/>
<path d="M27.1678 50.8782L21.0701 50.8782V56.9759H27.1678V50.8782Z" fill="black"/>
<path d="M33.2656 50.8782H27.1678V56.9759H33.2656V50.8782Z" fill="black"/>
<path d="M39.3634 50.8782H33.2656V56.9759H39.3634V50.8782Z" fill="black"/>
<path d="M45.4612 50.8782H39.3634V56.9759H45.4612V50.8782Z" fill="black"/>
<path d="M51.559 50.8782L45.4612 50.8782V56.9759H51.559L51.559 50.8782Z" fill="black"/>
<path d="M57.6567 50.8782H51.559L51.559 56.9759H57.6567V50.8782Z" fill="black"/>
<path d="M69.8523 50.8782H63.7545V56.9759H69.8523V50.8782Z" fill="black"/>
<path d="M82.0478 50.8782H75.9501V56.9759H82.0478V50.8782Z" fill="black"/>
<path d="M94.2434 50.8782H88.1456V56.9759H94.2434V50.8782Z" fill="black"/>
<path d="M106.439 50.8782H100.341V56.9759H106.439V50.8782Z" fill="black"/>
<path d="M118.635 50.8782H112.537V56.9759H118.635V50.8782Z" fill="black"/>
<path d="M130.83 50.8782H124.732V56.9759H130.83V50.8782Z" fill="black"/>
<path d="M136.928 50.8782L130.83 50.8782V56.9759H136.928V50.8782Z" fill="black"/>
<path d="M143.026 50.8782H136.928V56.9759H143.026V50.8782Z" fill="black"/>
<path d="M149.123 50.8782H143.026V56.9759H149.123V50.8782Z" fill="black"/>
<path d="M155.221 50.8782H149.123V56.9759H155.221V50.8782Z" fill="black"/>
<path d="M161.319 50.8782L155.221 50.8782V56.9759H161.319V50.8782Z" fill="black"/>
<path d="M167.417 50.8782H161.319V56.9759H167.417V50.8782Z" fill="black"/>
<path d="M69.8523 56.9759H63.7545V63.0737H69.8523V56.9759Z" fill="black"/>
<path d="M82.0478 56.9759H75.9501V63.0737H82.0478V56.9759Z" fill="black"/>
<path d="M94.2434 56.9759H88.1456V63.0737H94.2434V56.9759Z" fill="black"/>
<path d="M100.341 56.9759H94.2434V63.0737H100.341V56.9759Z" fill="black"/>
<path d="M112.537 56.9759H106.439L106.439 63.0737H112.537V56.9759Z" fill="black"/>
<path d="M118.635 56.9759H112.537V63.0737H118.635V56.9759Z" fill="black"/>
<path d="M21.0701 63.0737H14.9723V69.1715H21.0701V63.0737Z" fill="black"/>
<path d="M39.3634 63.0737H33.2656V69.1715H39.3634V63.0737Z" fill="black"/>
<path d="M45.4612 63.0737H39.3634V69.1715H45.4612V63.0737Z" fill="black"/>
<path d="M51.559 63.0737H45.4612V69.1715H51.559V63.0737Z" fill="black"/>
<path d="M57.6567 63.0737H51.559V69.1715H57.6567V63.0737Z" fill="black"/>
<path d="M63.7545 63.0737H57.6567V69.1715H63.7545V63.0737Z" fill="black"/>
<path d="M69.8523 63.0737H63.7545V69.1715H69.8523V63.0737Z" fill="black"/>
<path d="M75.9501 63.0737H69.8523V69.1715H75.9501V63.0737Z" fill="black"/>
<path d="M100.341 63.0737H94.2434V69.1715H100.341V63.0737Z" fill="black"/>
<path d="M118.635 63.0737H112.537V69.1715H118.635V63.0737Z" fill="black"/>
<path d="M124.732 63.0737H118.635V69.1715H124.732V63.0737Z" fill="black"/>
<path d="M130.83 63.0737H124.732V69.1715H130.83V63.0737Z" fill="black"/>
<path d="M143.026 63.0737H136.928V69.1715H143.026V63.0737Z" fill="black"/>
<path d="M167.417 63.0737H161.319V69.1715H167.417V63.0737Z" fill="black"/>
<path d="M27.1678 69.1715H21.0701V75.2693H27.1678V69.1715Z" fill="black"/>
<path d="M39.3634 69.1715H33.2656V75.2693H39.3634V69.1715Z" fill="black"/>
<path d="M45.4612 69.1715H39.3634V75.2693H45.4612V69.1715Z" fill="black"/>
<path d="M63.7545 69.1715H57.6567V75.2693H63.7545V69.1715Z" fill="black"/>
<path d="M69.8523 69.1715H63.7545V75.2693H69.8523V69.1715Z" fill="black"/>
<path d="M94.2434 69.1715H88.1456V75.2693H94.2434V69.1715Z" fill="black"/>
<path d="M112.537 69.1715H106.439V75.2693H112.537V69.1715Z" fill="black"/>
<path d="M124.732 69.1715H118.635V75.2693H124.732V69.1715Z" fill="black"/>
<path d="M130.83 69.1715H124.732V75.2693H130.83V69.1715Z" fill="black"/>
<path d="M143.026 69.1715H136.928V75.2693H143.026V69.1715Z" fill="black"/>
<path d="M149.123 69.1715H143.026V75.2693H149.123V69.1715Z" fill="black"/>
<path d="M155.221 69.1715H149.123V75.2693H155.221V69.1715Z" fill="black"/>
<path d="M161.319 69.1715H155.221V75.2693H161.319V69.1715Z" fill="black"/>
<path d="M167.417 69.1715H161.319V75.2693H167.417V69.1715Z" fill="black"/>
<path d="M21.0701 75.2693H14.9723V81.3671H21.0701V75.2693Z" fill="black"/>
<path d="M27.1678 75.2693H21.0701V81.3671H27.1678V75.2693Z" fill="black"/>
<path d="M39.3634 75.2693H33.2656V81.3671H39.3634V75.2693Z" fill="black"/>
<path d="M45.4612 75.2693H39.3634V81.3671H45.4612V75.2693Z" fill="black"/>
<path d="M51.559 75.2693H45.4612V81.3671H51.559V75.2693Z" fill="black"/>
<path d="M57.6567 75.2693H51.559V81.3671H57.6567V75.2693Z" fill="black"/>
<path d="M63.7545 75.2693H57.6567V81.3671H63.7545V75.2693Z" fill="black"/>
<path d="M75.9501 75.2693H69.8523V81.3671H75.9501V75.2693Z" fill="black"/>
<path d="M88.1456 75.2693H82.0478V81.3671H88.1456V75.2693Z" fill="black"/>
<path d="M94.2434 75.2693H88.1456V81.3671H94.2434V75.2693Z" fill="black"/>
<path d="M106.439 75.2693H100.341V81.3671H106.439L106.439 75.2693Z" fill="black"/>
<path d="M118.635 75.2693H112.537V81.3671H118.635V75.2693Z" fill="black"/>
<path d="M124.732 75.2693H118.635V81.3671H124.732V75.2693Z" fill="black"/>
<path d="M130.83 75.2693H124.732V81.3671H130.83V75.2693Z" fill="black"/>
<path d="M136.928 75.2693H130.83V81.3671H136.928V75.2693Z" fill="black"/>
<path d="M143.026 75.2693H136.928V81.3671H143.026V75.2693Z" fill="black"/>
<path d="M149.123 75.2693H143.026V81.3671H149.123V75.2693Z" fill="black"/>
<path d="M155.221 75.2693H149.123V81.3671H155.221V75.2693Z" fill="black"/>
<path d="M161.319 75.2693H155.221V81.3671H161.319V75.2693Z" fill="black"/>
<path d="M21.0701 81.3671H14.9723V87.4648H21.0701V81.3671Z" fill="black"/>
<path d="M45.4612 81.3671H39.3634V87.4648H45.4612V81.3671Z" fill="black"/>
<path d="M51.559 81.3671H45.4612V87.4648H51.559V81.3671Z" fill="black"/>
<path d="M63.7545 81.3671H57.6567V87.4648H63.7545V81.3671Z" fill="black"/>
<path d="M75.9501 81.3671H69.8523V87.4648H75.9501V81.3671Z" fill="black"/>
<path d="M82.0478 81.3671H75.9501V87.4648H82.0478V81.3671Z" fill="black"/>
<path d="M106.439 81.3671H100.341V87.4648H106.439V81.3671Z" fill="black"/>
<path d="M112.537 81.3671H106.439V87.4648H112.537V81.3671Z" fill="black"/>
<path d="M143.026 81.3671H136.928V87.4648H143.026V81.3671Z" fill="black"/>
<path d="M155.221 81.3671H149.123V87.4648H155.221V81.3671Z" fill="black"/>
<path d="M161.319 81.3671H155.221V87.4648H161.319V81.3671Z" fill="black"/>
<path d="M21.0701 87.4648H14.9723V93.5626H21.0701V87.4648Z" fill="black"/>
<path d="M39.3634 87.4648H33.2656V93.5626H39.3634V87.4648Z" fill="black"/>
<path d="M45.4612 87.4648H39.3634V93.5626H45.4612V87.4648Z" fill="black"/>
<path d="M51.559 87.4648H45.4612V93.5626H51.559V87.4648Z" fill="black"/>
<path d="M57.6567 87.4648H51.559V93.5626H57.6567V87.4648Z" fill="black"/>
<path d="M63.7545 87.4648H57.6567V93.5626H63.7545V87.4648Z" fill="black"/>
<path d="M69.8523 87.4648H63.7545V93.5626H69.8523V87.4648Z" fill="black"/>
<path d="M82.0478 87.4648H75.9501V93.5626H82.0478V87.4648Z" fill="black"/>
<path d="M88.1456 87.4648H82.0478V93.5626H88.1456V87.4648Z" fill="black"/>
<path d="M100.341 87.4648H94.2434V93.5626H100.341V87.4648Z" fill="black"/>
<path d="M106.439 87.4648H100.341V93.5626H106.439V87.4648Z" fill="black"/>
<path d="M118.635 87.4648H112.537V93.5626H118.635V87.4648Z" fill="black"/>
<path d="M136.928 87.4648H130.83V93.5626H136.928V87.4648Z" fill="black"/>
<path d="M149.123 87.4648H143.026V93.5626H149.123V87.4648Z" fill="black"/>
<path d="M155.221 87.4648H149.123V93.5626H155.221V87.4648Z" fill="black"/>
<path d="M167.417 87.4648H161.319V93.5626H167.417V87.4648Z" fill="black"/>
<path d="M21.0701 93.5626H14.9723V99.6604H21.0701V93.5626Z" fill="black"/>
<path d="M27.1678 93.5626H21.0701V99.6604H27.1678V93.5626Z" fill="black"/>
<path d="M63.7545 93.5626H57.6567V99.6604H63.7545V93.5626Z" fill="black"/>
<path d="M69.8523 93.5626H63.7545V99.6604H69.8523V93.5626Z" fill="black"/>
<path d="M75.9501 93.5626H69.8523V99.6604H75.9501V93.5626Z" fill="black"/>
<path d="M94.2434 93.5626H88.1456V99.6604H94.2434V93.5626Z" fill="black"/>
<path d="M106.439 93.5626H100.341V99.6604H106.439V93.5626Z" fill="black"/>
<path d="M112.537 93.5626H106.439V99.6604H112.537V93.5626Z" fill="black"/>
<path d="M118.635 93.5626H112.537V99.6604H118.635V93.5626Z" fill="black"/>
<path d="M124.732 93.5626H118.635V99.6604H124.732V93.5626Z" fill="black"/>
<path d="M143.026 93.5626H136.928V99.6604H143.026V93.5626Z" fill="black"/>
<path d="M155.221 93.5626H149.123V99.6604H155.221V93.5626Z" fill="black"/>
<path d="M161.319 93.5626H155.221V99.6604H161.319V93.5626Z" fill="black"/>
<path d="M167.417 93.5626H161.319V99.6604H167.417V93.5626Z" fill="black"/>
<path d="M21.0701 99.6604H14.9723V105.758H21.0701V99.6604Z" fill="black"/>
<path d="M27.1678 99.6604H21.0701V105.758H27.1678V99.6604Z" fill="black"/>
<path d="M33.2656 99.6604H27.1678V105.758H33.2656V99.6604Z" fill="black"/>
<path d="M57.6567 99.6604H51.559V105.758H57.6567V99.6604Z" fill="black"/>
<path d="M75.9501 99.6604H69.8523V105.758H75.9501V99.6604Z" fill="black"/>
<path d="M88.1456 99.6604H82.0478V105.758H88.1456V99.6604Z" fill="black"/>
<path d="M94.2434 99.6604H88.1456V105.758H94.2434V99.6604Z" fill="black"/>
<path d="M106.439 99.6604H100.341V105.758H106.439V99.6604Z" fill="black"/>
<path d="M124.732 99.6604H118.635V105.758H124.732V99.6604Z" fill="black"/>
<path d="M136.928 99.6604H130.83V105.758H136.928V99.6604Z" fill="black"/>
<path d="M143.026 99.6604H136.928V105.758H143.026V99.6604Z" fill="black"/>
<path d="M155.221 99.6604H149.123V105.758H155.221V99.6604Z" fill="black"/>
<path d="M27.1678 105.758H21.0701V111.856H27.1678V105.758Z" fill="black"/>
<path d="M63.7545 105.758L57.6567 105.758V111.856H63.7545V105.758Z" fill="black"/>
<path d="M94.2434 105.758H88.1456V111.856H94.2434V105.758Z" fill="black"/>
<path d="M106.439 105.758H100.341V111.856H106.439V105.758Z" fill="black"/>
<path d="M112.537 105.758L106.439 105.758V111.856H112.537V105.758Z" fill="black"/>
<path d="M130.83 105.758H124.732V111.856H130.83V105.758Z" fill="black"/>
<path d="M143.026 105.758H136.928V111.856H143.026V105.758Z" fill="black"/>
<path d="M161.319 105.758L155.221 105.758V111.856H161.319V105.758Z" fill="black"/>
<path d="M21.0701 111.856H14.9723V117.954H21.0701V111.856Z" fill="black"/>
<path d="M51.559 111.856H45.4612V117.954H51.559V111.856Z" fill="black"/>
<path d="M57.6567 111.856H51.559V117.954H57.6567V111.856Z" fill="black"/>
<path d="M63.7545 111.856H57.6567V117.954H63.7545V111.856Z" fill="black"/>
<path d="M75.9501 111.856H69.8523V117.954H75.9501V111.856Z" fill="black"/>
<path d="M82.0478 111.856H75.9501V117.954H82.0478V111.856Z" fill="black"/>
<path d="M94.2434 111.856H88.1456V117.954H94.2434V111.856Z" fill="black"/>
<path d="M112.537 111.856H106.439L106.439 117.954H112.537V111.856Z" fill="black"/>
<path d="M118.635 111.856H112.537V117.954H118.635V111.856Z" fill="black"/>
<path d="M124.732 111.856H118.635V117.954H124.732V111.856Z" fill="black"/>
<path d="M130.83 111.856H124.732V117.954H130.83V111.856Z" fill="black"/>
<path d="M136.928 111.856H130.83V117.954H136.928V111.856Z" fill="black"/>
<path d="M143.026 111.856H136.928V117.954H143.026V111.856Z" fill="black"/>
<path d="M149.123 111.856H143.026V117.954H149.123V111.856Z" fill="black"/>
<path d="M161.319 111.856H155.221V117.954H161.319V111.856Z" fill="black"/>
<path d="M69.8523 117.954H63.7545V124.051H69.8523V117.954Z" fill="black"/>
<path d="M82.0478 117.954H75.9501V124.051H82.0478V117.954Z" fill="black"/>
<path d="M94.2434 117.954H88.1456V124.051H94.2434V117.954Z" fill="black"/>
<path d="M112.537 117.954H106.439V124.051H112.537V117.954Z" fill="black"/>
<path d="M118.635 117.954H112.537V124.051H118.635V117.954Z" fill="black"/>
<path d="M143.026 117.954H136.928V124.051H143.026V117.954Z" fill="black"/>
<path d="M149.123 117.954H143.026V124.051H149.123V117.954Z" fill="black"/>
<path d="M155.221 117.954H149.123V124.051H155.221V117.954Z" fill="black"/>
<path d="M21.0701 124.051H14.9723V130.149H21.0701V124.051Z" fill="black"/>
<path d="M27.1678 124.051H21.0701V130.149H27.1678V124.051Z" fill="black"/>
<path d="M33.2656 124.051H27.1678V130.149H33.2656V124.051Z" fill="black"/>
<path d="M39.3634 124.051H33.2656V130.149H39.3634V124.051Z" fill="black"/>
<path d="M45.4612 124.051H39.3634V130.149H45.4612V124.051Z" fill="black"/>
<path d="M51.559 124.051H45.4612V130.149H51.559V124.051Z" fill="black"/>
<path d="M57.6567 124.051H51.559V130.149H57.6567V124.051Z" fill="black"/>
<path d="M69.8523 124.051H63.7545V130.149H69.8523V124.051Z" fill="black"/>
<path d="M94.2434 124.051H88.1456V130.149H94.2434V124.051Z" fill="black"/>
<path d="M112.537 124.051H106.439V130.149H112.537V124.051Z" fill="black"/>
<path d="M118.635 124.051H112.537V130.149H118.635V124.051Z" fill="black"/>
<path d="M130.83 124.051H124.732V130.149H130.83V124.051Z" fill="black"/>
<path d="M143.026 124.051H136.928V130.149H143.026V124.051Z" fill="black"/>
<path d="M149.123 124.051H143.026V130.149H149.123V124.051Z" fill="black"/>
<path d="M155.221 124.051H149.123V130.149H155.221V124.051Z" fill="black"/>
<path d="M167.417 124.051H161.319V130.149H167.417V124.051Z" fill="black"/>
<path d="M21.0701 130.149H14.9723V136.247H21.0701V130.149Z" fill="black"/>
<path d="M57.6567 130.149H51.559L51.559 136.247H57.6567V130.149Z" fill="black"/>
<path d="M69.8523 130.149H63.7545V136.247H69.8523V130.149Z" fill="black"/>
<path d="M82.0478 130.149H75.9501V136.247H82.0478V130.149Z" fill="black"/>
<path d="M106.439 130.149H100.341V136.247H106.439L106.439 130.149Z" fill="black"/>
<path d="M118.635 130.149H112.537V136.247H118.635V130.149Z" fill="black"/>
<path d="M143.026 130.149H136.928V136.247H143.026V130.149Z" fill="black"/>
<path d="M155.221 130.149H149.123V136.247H155.221V130.149Z" fill="black"/>
<path d="M21.0701 136.247H14.9723V142.345H21.0701V136.247Z" fill="black"/>
<path d="M33.2656 136.247H27.1678V142.345H33.2656V136.247Z" fill="black"/>
<path d="M39.3634 136.247H33.2656V142.345H39.3634V136.247Z" fill="black"/>
<path d="M45.4612 136.247H39.3634V142.345H45.4612V136.247Z" fill="black"/>
<path d="M57.6567 136.247H51.559V142.345H57.6567V136.247Z" fill="black"/>
<path d="M69.8523 136.247H63.7545V142.345H69.8523V136.247Z" fill="black"/>
<path d="M75.9501 136.247H69.8523V142.345H75.9501V136.247Z" fill="black"/>
<path d="M82.0478 136.247H75.9501V142.345H82.0478V136.247Z" fill="black"/>
<path d="M100.341 136.247H94.2434V142.345H100.341V136.247Z" fill="black"/>
<path d="M106.439 136.247H100.341V142.345H106.439V136.247Z" fill="black"/>
<path d="M118.635 136.247H112.537V142.345H118.635V136.247Z" fill="black"/>
<path d="M124.732 136.247H118.635V142.345H124.732V136.247Z" fill="black"/>
<path d="M130.83 136.247H124.732V142.345H130.83V136.247Z" fill="black"/>
<path d="M136.928 136.247H130.83V142.345H136.928V136.247Z" fill="black"/>
<path d="M143.026 136.247H136.928V142.345H143.026V136.247Z" fill="black"/>
<path d="M167.417 136.247H161.319V142.345H167.417V136.247Z" fill="black"/>
<path d="M21.0701 142.345H14.9723V148.443H21.0701V142.345Z" fill="black"/>
<path d="M33.2656 142.345H27.1678V148.443H33.2656V142.345Z" fill="black"/>
<path d="M39.3634 142.345H33.2656V148.443H39.3634V142.345Z" fill="black"/>
<path d="M45.4612 142.345H39.3634V148.443H45.4612V142.345Z" fill="black"/>
<path d="M57.6567 142.345H51.559V148.443H57.6567V142.345Z" fill="black"/>
<path d="M69.8523 142.345H63.7545V148.443H69.8523V142.345Z" fill="black"/>
<path d="M94.2434 142.345H88.1456V148.443H94.2434V142.345Z" fill="black"/>
<path d="M118.635 142.345H112.537V148.443H118.635V142.345Z" fill="black"/>
<path d="M124.732 142.345H118.635V148.443H124.732V142.345Z" fill="black"/>
<path d="M149.123 142.345H143.026V148.443H149.123V142.345Z" fill="black"/>
<path d="M21.0701 148.443H14.9723V154.54H21.0701V148.443Z" fill="black"/>
<path d="M33.2656 148.443H27.1678V154.54H33.2656V148.443Z" fill="black"/>
<path d="M39.3634 148.443H33.2656V154.54H39.3634V148.443Z" fill="black"/>
<path d="M45.4612 148.443H39.3634V154.54H45.4612V148.443Z" fill="black"/>
<path d="M57.6567 148.443H51.559V154.54H57.6567V148.443Z" fill="black"/>
<path d="M88.1456 148.443H82.0478V154.54H88.1456V148.443Z" fill="black"/>
<path d="M94.2434 148.443H88.1456V154.54H94.2434V148.443Z" fill="black"/>
<path d="M106.439 148.443H100.341V154.54H106.439V148.443Z" fill="black"/>
<path d="M112.537 148.443H106.439V154.54H112.537V148.443Z" fill="black"/>
<path d="M118.635 148.443H112.537V154.54H118.635V148.443Z" fill="black"/>
<path d="M136.928 148.443H130.83V154.54H136.928V148.443Z" fill="black"/>
<path d="M143.026 148.443H136.928V154.54H143.026V148.443Z" fill="black"/>
<path d="M155.221 148.443H149.123V154.54H155.221V148.443Z" fill="black"/>
<path d="M161.319 148.443H155.221V154.54H161.319V148.443Z" fill="black"/>
<path d="M167.417 148.443H161.319V154.54H167.417V148.443Z" fill="black"/>
<path d="M21.0701 154.54H14.9723V160.638H21.0701V154.54Z" fill="black"/>
<path d="M57.6567 154.54H51.559V160.638H57.6567V154.54Z" fill="black"/>
<path d="M75.9501 154.54H69.8523V160.638H75.9501V154.54Z" fill="black"/>
<path d="M82.0478 154.54H75.9501V160.638H82.0478V154.54Z" fill="black"/>
<path d="M88.1456 154.54H82.0478V160.638H88.1456V154.54Z" fill="black"/>
<path d="M100.341 154.54H94.2434V160.638H100.341V154.54Z" fill="black"/>
<path d="M106.439 154.54H100.341V160.638H106.439V154.54Z" fill="black"/>
<path d="M124.732 154.54H118.635V160.638H124.732V154.54Z" fill="black"/>
<path d="M130.83 154.54H124.732V160.638H130.83V154.54Z" fill="black"/>
<path d="M136.928 154.54H130.83V160.638H136.928V154.54Z" fill="black"/>
<path d="M143.026 154.54H136.928V160.638H143.026V154.54Z" fill="black"/>
<path d="M155.221 154.54H149.123V160.638H155.221V154.54Z" fill="black"/>
<path d="M161.319 154.54H155.221V160.638H161.319V154.54Z" fill="black"/>
<path d="M167.417 154.54H161.319V160.638H167.417V154.54Z" fill="black"/>
<path d="M21.0701 160.638H14.9723V166.736H21.0701V160.638Z" fill="black"/>
<path d="M27.1678 160.638H21.0701V166.736H27.1678V160.638Z" fill="black"/>
<path d="M33.2656 160.638H27.1678V166.736H33.2656V160.638Z" fill="black"/>
<path d="M39.3634 160.638H33.2656V166.736H39.3634V160.638Z" fill="black"/>
<path d="M45.4612 160.638H39.3634V166.736H45.4612V160.638Z" fill="black"/>
<path d="M51.559 160.638H45.4612V166.736H51.559L51.559 160.638Z" fill="black"/>
<path d="M57.6567 160.638H51.559L51.559 166.736H57.6567V160.638Z" fill="black"/>
<path d="M69.8523 160.638H63.7545V166.736H69.8523V160.638Z" fill="black"/>
<path d="M88.1456 160.638H82.0478V166.736H88.1456V160.638Z" fill="black"/>
<path d="M94.2434 160.638H88.1456V166.736H94.2434V160.638Z" fill="black"/>
<path d="M118.635 160.638H112.537V166.736H118.635V160.638Z" fill="black"/>
<path d="M149.123 160.638H143.026V166.736H149.123V160.638Z" fill="black"/>
<path d="M167.417 160.638H161.319V166.736H167.417V160.638Z" fill="black"/>
<mask id="mask0_697_1586" style="mask-type:alpha" maskUnits="userSpaceOnUse" x="14" y="14" width="154" height="153">
<path d="M21.0701 14.2915H14.9723V20.3893H21.0701V14.2915Z" fill="black"/>
<path d="M27.1678 14.2915H21.0701V20.3893H27.1678V14.2915Z" fill="black"/>
<path d="M33.2656 14.2915H27.1678V20.3893H33.2656V14.2915Z" fill="black"/>
<path d="M39.3634 14.2915H33.2656V20.3893H39.3634V14.2915Z" fill="black"/>
<path d="M45.4612 14.2915H39.3634V20.3893H45.4612V14.2915Z" fill="black"/>
<path d="M51.559 14.2915H45.4612V20.3893H51.559V14.2915Z" fill="black"/>
<path d="M57.6567 14.2915H51.559V20.3893H57.6567V14.2915Z" fill="black"/>
<path d="M69.8523 14.2915H63.7545V20.3893H69.8523V14.2915Z" fill="black"/>
<path d="M75.9501 14.2915H69.8523V20.3893H75.9501V14.2915Z" fill="black"/>
<path d="M100.341 14.2915H94.2434V20.3893H100.341V14.2915Z" fill="black"/>
<path d="M118.635 14.2915H112.537V20.3893H118.635V14.2915Z" fill="black"/>
<path d="M130.83 14.2915H124.732V20.3893H130.83V14.2915Z" fill="black"/>
<path d="M136.928 14.2915H130.83V20.3893H136.928V14.2915Z" fill="black"/>
<path d="M143.026 14.2915H136.928V20.3893H143.026V14.2915Z" fill="black"/>
<path d="M149.123 14.2915H143.026V20.3893H149.123V14.2915Z" fill="black"/>
<path d="M155.221 14.2915H149.123V20.3893H155.221V14.2915Z" fill="black"/>
<path d="M161.319 14.2915H155.221V20.3893H161.319V14.2915Z" fill="black"/>
<path d="M167.417 14.2915H161.319V20.3893H167.417V14.2915Z" fill="black"/>
<path d="M21.0701 20.3893H14.9723V26.4871H21.0701V20.3893Z" fill="black"/>
<path d="M57.6567 20.3893H51.559L51.559 26.4871H57.6567V20.3893Z" fill="black"/>
<path d="M94.2434 20.3893H88.1456V26.4871H94.2434V20.3893Z" fill="black"/>
<path d="M100.341 20.3893H94.2434V26.4871H100.341V20.3893Z" fill="black"/>
<path d="M118.635 20.3893H112.537V26.4871H118.635V20.3893Z" fill="black"/>
<path d="M130.83 20.3893H124.732V26.4871H130.83V20.3893Z" fill="black"/>
<path d="M167.417 20.3893H161.319V26.4871H167.417V20.3893Z" fill="black"/>
<path d="M21.0701 26.4871H14.9723V32.5848H21.0701V26.4871Z" fill="black"/>
<path d="M33.2656 26.4871H27.1678V32.5848H33.2656V26.4871Z" fill="black"/>
<path d="M39.3634 26.4871H33.2656V32.5848H39.3634V26.4871Z" fill="black"/>
<path d="M45.4612 26.4871H39.3634V32.5848H45.4612V26.4871Z" fill="black"/>
<path d="M57.6567 26.4871H51.559V32.5848H57.6567V26.4871Z" fill="black"/>
<path d="M75.9501 26.4871H69.8523V32.5848H75.9501V26.4871Z" fill="black"/>
<path d="M82.0478 26.4871H75.9501V32.5848H82.0478V26.4871Z" fill="black"/>
<path d="M88.1456 26.4871H82.0478V32.5848H88.1456V26.4871Z" fill="black"/>
<path d="M94.2434 26.4871H88.1456V32.5848H94.2434V26.4871Z" fill="black"/>
<path d="M100.341 26.4871H94.2434V32.5848H100.341V26.4871Z" fill="black"/>
<path d="M118.635 26.4871H112.537V32.5848H118.635V26.4871Z" fill="black"/>
<path d="M130.83 26.4871H124.732V32.5848H130.83V26.4871Z" fill="black"/>
<path d="M143.026 26.4871H136.928V32.5848H143.026V26.4871Z" fill="black"/>
<path d="M149.123 26.4871H143.026V32.5848H149.123V26.4871Z" fill="black"/>
<path d="M155.221 26.4871H149.123V32.5848H155.221V26.4871Z" fill="black"/>
<path d="M167.417 26.4871H161.319V32.5848H167.417V26.4871Z" fill="black"/>
<path d="M21.0701 32.5848H14.9723V38.6826H21.0701V32.5848Z" fill="black"/>
<path d="M33.2656 32.5848H27.1678V38.6826H33.2656V32.5848Z" fill="black"/>
<path d="M39.3634 32.5848H33.2656V38.6826H39.3634V32.5848Z" fill="black"/>
<path d="M45.4612 32.5848H39.3634V38.6826H45.4612V32.5848Z" fill="black"/>
<path d="M57.6567 32.5848H51.559V38.6826H57.6567V32.5848Z" fill="black"/>
<path d="M75.9501 32.5848H69.8523V38.6826H75.9501V32.5848Z" fill="black"/>
<path d="M82.0478 32.5848H75.9501V38.6826H82.0478V32.5848Z" fill="black"/>
<path d="M100.341 32.5848H94.2434V38.6826H100.341V32.5848Z" fill="black"/>
<path d="M130.83 32.5848H124.732V38.6826H130.83V32.5848Z" fill="black"/>
<path d="M143.026 32.5848H136.928V38.6826H143.026V32.5848Z" fill="black"/>
<path d="M149.123 32.5848H143.026V38.6826H149.123V32.5848Z" fill="black"/>
<path d="M155.221 32.5848H149.123V38.6826H155.221V32.5848Z" fill="black"/>
<path d="M167.417 32.5848H161.319V38.6826H167.417V32.5848Z" fill="black"/>
<path d="M21.0701 38.6826H14.9723V44.7804H21.0701V38.6826Z" fill="black"/>
<path d="M33.2656 38.6826H27.1678V44.7804H33.2656V38.6826Z" fill="black"/>
<path d="M39.3634 38.6826H33.2656V44.7804H39.3634V38.6826Z" fill="black"/>
<path d="M45.4612 38.6826H39.3634V44.7804H45.4612V38.6826Z" fill="black"/>
<path d="M57.6567 38.6826H51.559V44.7804H57.6567V38.6826Z" fill="black"/>
<path d="M69.8523 38.6826H63.7545V44.7804H69.8523V38.6826Z" fill="black"/>
<path d="M82.0478 38.6826H75.9501V44.7804H82.0478V38.6826Z" fill="black"/>
<path d="M88.1456 38.6826H82.0478V44.7804H88.1456V38.6826Z" fill="black"/>
<path d="M94.2434 38.6826H88.1456V44.7804H94.2434V38.6826Z" fill="black"/>
<path d="M106.439 38.6826H100.341V44.7804H106.439V38.6826Z" fill="black"/>
<path d="M130.83 38.6826H124.732V44.7804H130.83V38.6826Z" fill="black"/>
<path d="M143.026 38.6826H136.928V44.7804H143.026V38.6826Z" fill="black"/>
<path d="M149.123 38.6826H143.026V44.7804H149.123V38.6826Z" fill="black"/>
<path d="M155.221 38.6826H149.123V44.7804H155.221V38.6826Z" fill="black"/>
<path d="M167.417 38.6826H161.319V44.7804H167.417V38.6826Z" fill="black"/>
<path d="M21.0701 44.7804H14.9723V50.8782H21.0701V44.7804Z" fill="black"/>
<path d="M57.6567 44.7804H51.559V50.8782H57.6567V44.7804Z" fill="black"/>
<path d="M106.439 44.7804H100.341V50.8782H106.439V44.7804Z" fill="black"/>
<path d="M130.83 44.7804H124.732V50.8782H130.83V44.7804Z" fill="black"/>
<path d="M167.417 44.7804H161.319V50.8782H167.417V44.7804Z" fill="black"/>
<path d="M21.0701 50.8782H14.9723V56.9759H21.0701V50.8782Z" fill="black"/>
<path d="M27.1678 50.8782L21.0701 50.8782V56.9759H27.1678V50.8782Z" fill="black"/>
<path d="M33.2656 50.8782H27.1678V56.9759H33.2656V50.8782Z" fill="black"/>
<path d="M39.3634 50.8782H33.2656V56.9759H39.3634V50.8782Z" fill="black"/>
<path d="M45.4612 50.8782H39.3634V56.9759H45.4612V50.8782Z" fill="black"/>
<path d="M51.559 50.8782L45.4612 50.8782V56.9759H51.559L51.559 50.8782Z" fill="black"/>
<path d="M57.6567 50.8782H51.559L51.559 56.9759H57.6567V50.8782Z" fill="black"/>
<path d="M69.8523 50.8782H63.7545V56.9759H69.8523V50.8782Z" fill="black"/>
<path d="M82.0478 50.8782H75.9501V56.9759H82.0478V50.8782Z" fill="black"/>
<path d="M94.2434 50.8782H88.1456V56.9759H94.2434V50.8782Z" fill="black"/>
<path d="M106.439 50.8782H100.341V56.9759H106.439V50.8782Z" fill="black"/>
<path d="M118.635 50.8782H112.537V56.9759H118.635V50.8782Z" fill="black"/>
<path d="M130.83 50.8782H124.732V56.9759H130.83V50.8782Z" fill="black"/>
<path d="M136.928 50.8782L130.83 50.8782V56.9759H136.928V50.8782Z" fill="black"/>
<path d="M143.026 50.8782H136.928V56.9759H143.026V50.8782Z" fill="black"/>
<path d="M149.123 50.8782H143.026V56.9759H149.123V50.8782Z" fill="black"/>
<path d="M155.221 50.8782H149.123V56.9759H155.221V50.8782Z" fill="black"/>
<path d="M161.319 50.8782L155.221 50.8782V56.9759H161.319V50.8782Z" fill="black"/>
<path d="M167.417 50.8782H161.319V56.9759H167.417V50.8782Z" fill="black"/>
<path d="M69.8523 56.9759H63.7545V63.0737H69.8523V56.9759Z" fill="black"/>
<path d="M82.0478 56.9759H75.9501V63.0737H82.0478V56.9759Z" fill="black"/>
<path d="M94.2434 56.9759H88.1456V63.0737H94.2434V56.9759Z" fill="black"/>
<path d="M100.341 56.9759H94.2434V63.0737H100.341V56.9759Z" fill="black"/>
<path d="M112.537 56.9759H106.439L106.439 63.0737H112.537V56.9759Z" fill="black"/>
<path d="M118.635 56.9759H112.537V63.0737H118.635V56.9759Z" fill="black"/>
<path d="M21.0701 63.0737H14.9723V69.1715H21.0701V63.0737Z" fill="black"/>
<path d="M39.3634 63.0737H33.2656V69.1715H39.3634V63.0737Z" fill="black"/>
<path d="M45.4612 63.0737H39.3634V69.1715H45.4612V63.0737Z" fill="black"/>
<path d="M51.559 63.0737H45.4612V69.1715H51.559V63.0737Z" fill="black"/>
<path d="M57.6567 63.0737H51.559V69.1715H57.6567V63.0737Z" fill="black"/>
<path d="M63.7545 63.0737H57.6567V69.1715H63.7545V63.0737Z" fill="black"/>
<path d="M69.8523 63.0737H63.7545V69.1715H69.8523V63.0737Z" fill="black"/>
<path d="M75.9501 63.0737H69.8523V69.1715H75.9501V63.0737Z" fill="black"/>
<path d="M100.341 63.0737H94.2434V69.1715H100.341V63.0737Z" fill="black"/>
<path d="M118.635 63.0737H112.537V69.1715H118.635V63.0737Z" fill="black"/>
<path d="M124.732 63.0737H118.635V69.1715H124.732V63.0737Z" fill="black"/>
<path d="M130.83 63.0737H124.732V69.1715H130.83V63.0737Z" fill="black"/>
<path d="M143.026 63.0737H136.928V69.1715H143.026V63.0737Z" fill="black"/>
<path d="M167.417 63.0737H161.319V69.1715H167.417V63.0737Z" fill="black"/>
<path d="M27.1678 69.1715H21.0701V75.2693H27.1678V69.1715Z" fill="black"/>
<path d="M39.3634 69.1715H33.2656V75.2693H39.3634V69.1715Z" fill="black"/>
<path d="M45.4612 69.1715H39.3634V75.2693H45.4612V69.1715Z" fill="black"/>
<path d="M63.7545 69.1715H57.6567V75.2693H63.7545V69.1715Z" fill="black"/>
<path d="M69.8523 69.1715H63.7545V75.2693H69.8523V69.1715Z" fill="black"/>
<path d="M94.2434 69.1715H88.1456V75.2693H94.2434V69.1715Z" fill="black"/>
<path d="M112.537 69.1715H106.439V75.2693H112.537V69.1715Z" fill="black"/>
<path d="M124.732 69.1715H118.635V75.2693H124.732V69.1715Z" fill="black"/>
<path d="M130.83 69.1715H124.732V75.2693H130.83V69.1715Z" fill="black"/>
<path d="M143.026 69.1715H136.928V75.2693H143.026V69.1715Z" fill="black"/>
<path d="M149.123 69.1715H143.026V75.2693H149.123V69.1715Z" fill="black"/>
<path d="M155.221 69.1715H149.123V75.2693H155.221V69.1715Z" fill="black"/>
<path d="M161.319 69.1715H155.221V75.2693H161.319V69.1715Z" fill="black"/>
<path d="M167.417 69.1715H161.319V75.2693H167.417V69.1715Z" fill="black"/>
<path d="M21.0701 75.2693H14.9723V81.3671H21.0701V75.2693Z" fill="black"/>
<path d="M27.1678 75.2693H21.0701V81.3671H27.1678V75.2693Z" fill="black"/>
<path d="M39.3634 75.2693H33.2656V81.3671H39.3634V75.2693Z" fill="black"/>
<path d="M45.4612 75.2693H39.3634V81.3671H45.4612V75.2693Z" fill="black"/>
<path d="M51.559 75.2693H45.4612V81.3671H51.559V75.2693Z" fill="black"/>
<path d="M57.6567 75.2693H51.559V81.3671H57.6567V75.2693Z" fill="black"/>
<path d="M63.7545 75.2693H57.6567V81.3671H63.7545V75.2693Z" fill="black"/>
<path d="M75.9501 75.2693H69.8523V81.3671H75.9501V75.2693Z" fill="black"/>
<path d="M88.1456 75.2693H82.0478V81.3671H88.1456V75.2693Z" fill="black"/>
<path d="M94.2434 75.2693H88.1456V81.3671H94.2434V75.2693Z" fill="black"/>
<path d="M106.439 75.2693H100.341V81.3671H106.439L106.439 75.2693Z" fill="black"/>
<path d="M118.635 75.2693H112.537V81.3671H118.635V75.2693Z" fill="black"/>
<path d="M124.732 75.2693H118.635V81.3671H124.732V75.2693Z" fill="black"/>
<path d="M130.83 75.2693H124.732V81.3671H130.83V75.2693Z" fill="black"/>
<path d="M136.928 75.2693H130.83V81.3671H136.928V75.2693Z" fill="black"/>
<path d="M143.026 75.2693H136.928V81.3671H143.026V75.2693Z" fill="black"/>
<path d="M149.123 75.2693H143.026V81.3671H149.123V75.2693Z" fill="black"/>
<path d="M155.221 75.2693H149.123V81.3671H155.221V75.2693Z" fill="black"/>
<path d="M161.319 75.2693H155.221V81.3671H161.319V75.2693Z" fill="black"/>
<path d="M21.0701 81.3671H14.9723V87.4648H21.0701V81.3671Z" fill="black"/>
<path d="M45.4612 81.3671H39.3634V87.4648H45.4612V81.3671Z" fill="black"/>
<path d="M51.559 81.3671H45.4612V87.4648H51.559V81.3671Z" fill="black"/>
<path d="M63.7545 81.3671H57.6567V87.4648H63.7545V81.3671Z" fill="black"/>
<path d="M75.9501 81.3671H69.8523V87.4648H75.9501V81.3671Z" fill="black"/>
<path d="M82.0478 81.3671H75.9501V87.4648H82.0478V81.3671Z" fill="black"/>
<path d="M106.439 81.3671H100.341V87.4648H106.439V81.3671Z" fill="black"/>
<path d="M112.537 81.3671H106.439V87.4648H112.537V81.3671Z" fill="black"/>
<path d="M143.026 81.3671H136.928V87.4648H143.026V81.3671Z" fill="black"/>
<path d="M155.221 81.3671H149.123V87.4648H155.221V81.3671Z" fill="black"/>
<path d="M161.319 81.3671H155.221V87.4648H161.319V81.3671Z" fill="black"/>
<path d="M21.0701 87.4648H14.9723V93.5626H21.0701V87.4648Z" fill="black"/>
<path d="M39.3634 87.4648H33.2656V93.5626H39.3634V87.4648Z" fill="black"/>
<path d="M45.4612 87.4648H39.3634V93.5626H45.4612V87.4648Z" fill="black"/>
<path d="M51.559 87.4648H45.4612V93.5626H51.559V87.4648Z" fill="black"/>
<path d="M57.6567 87.4648H51.559V93.5626H57.6567V87.4648Z" fill="black"/>
<path d="M63.7545 87.4648H57.6567V93.5626H63.7545V87.4648Z" fill="black"/>
<path d="M69.8523 87.4648H63.7545V93.5626H69.8523V87.4648Z" fill="black"/>
<path d="M82.0478 87.4648H75.9501V93.5626H82.0478V87.4648Z" fill="black"/>
<path d="M88.1456 87.4648H82.0478V93.5626H88.1456V87.4648Z" fill="black"/>
<path d="M100.341 87.4648H94.2434V93.5626H100.341V87.4648Z" fill="black"/>
<path d="M106.439 87.4648H100.341V93.5626H106.439V87.4648Z" fill="black"/>
<path d="M118.635 87.4648H112.537V93.5626H118.635V87.4648Z" fill="black"/>
<path d="M136.928 87.4648H130.83V93.5626H136.928V87.4648Z" fill="black"/>
<path d="M149.123 87.4648H143.026V93.5626H149.123V87.4648Z" fill="black"/>
<path d="M155.221 87.4648H149.123V93.5626H155.221V87.4648Z" fill="black"/>
<path d="M167.417 87.4648H161.319V93.5626H167.417V87.4648Z" fill="black"/>
<path d="M21.0701 93.5626H14.9723V99.6604H21.0701V93.5626Z" fill="black"/>
<path d="M27.1678 93.5626H21.0701V99.6604H27.1678V93.5626Z" fill="black"/>
<path d="M63.7545 93.5626H57.6567V99.6604H63.7545V93.5626Z" fill="black"/>
<path d="M69.8523 93.5626H63.7545V99.6604H69.8523V93.5626Z" fill="black"/>
<path d="M75.9501 93.5626H69.8523V99.6604H75.9501V93.5626Z" fill="black"/>
<path d="M94.2434 93.5626H88.1456V99.6604H94.2434V93.5626Z" fill="black"/>
<path d="M106.439 93.5626H100.341V99.6604H106.439V93.5626Z" fill="black"/>
<path d="M112.537 93.5626H106.439V99.6604H112.537V93.5626Z" fill="black"/>
<path d="M118.635 93.5626H112.537V99.6604H118.635V93.5626Z" fill="black"/>
<path d="M124.732 93.5626H118.635V99.6604H124.732V93.5626Z" fill="black"/>
<path d="M143.026 93.5626H136.928V99.6604H143.026V93.5626Z" fill="black"/>
<path d="M155.221 93.5626H149.123V99.6604H155.221V93.5626Z" fill="black"/>
<path d="M161.319 93.5626H155.221V99.6604H161.319V93.5626Z" fill="black"/>
<path d="M167.417 93.5626H161.319V99.6604H167.417V93.5626Z" fill="black"/>
<path d="M21.0701 99.6604H14.9723V105.758H21.0701V99.6604Z" fill="black"/>
<path d="M27.1678 99.6604H21.0701V105.758H27.1678V99.6604Z" fill="black"/>
<path d="M33.2656 99.6604H27.1678V105.758H33.2656V99.6604Z" fill="black"/>
<path d="M57.6567 99.6604H51.559V105.758H57.6567V99.6604Z" fill="black"/>
<path d="M75.9501 99.6604H69.8523V105.758H75.9501V99.6604Z" fill="black"/>
<path d="M88.1456 99.6604H82.0478V105.758H88.1456V99.6604Z" fill="black"/>
<path d="M94.2434 99.6604H88.1456V105.758H94.2434V99.6604Z" fill="black"/>
<path d="M106.439 99.6604H100.341V105.758H106.439V99.6604Z" fill="black"/>
<path d="M124.732 99.6604H118.635V105.758H124.732V99.6604Z" fill="black"/>
<path d="M136.928 99.6604H130.83V105.758H136.928V99.6604Z" fill="black"/>
<path d="M143.026 99.6604H136.928V105.758H143.026V99.6604Z" fill="black"/>
<path d="M155.221 99.6604H149.123V105.758H155.221V99.6604Z" fill="black"/>
<path d="M27.1678 105.758H21.0701V111.856H27.1678V105.758Z" fill="black"/>
<path d="M63.7545 105.758L57.6567 105.758V111.856H63.7545V105.758Z" fill="black"/>
<path d="M94.2434 105.758H88.1456V111.856H94.2434V105.758Z" fill="black"/>
<path d="M106.439 105.758H100.341V111.856H106.439V105.758Z" fill="black"/>
<path d="M112.537 105.758L106.439 105.758V111.856H112.537V105.758Z" fill="black"/>
<path d="M130.83 105.758H124.732V111.856H130.83V105.758Z" fill="black"/>
<path d="M143.026 105.758H136.928V111.856H143.026V105.758Z" fill="black"/>
<path d="M161.319 105.758L155.221 105.758V111.856H161.319V105.758Z" fill="black"/>
<path d="M21.0701 111.856H14.9723V117.954H21.0701V111.856Z" fill="black"/>
<path d="M51.559 111.856H45.4612V117.954H51.559V111.856Z" fill="black"/>
<path d="M57.6567 111.856H51.559V117.954H57.6567V111.856Z" fill="black"/>
<path d="M63.7545 111.856H57.6567V117.954H63.7545V111.856Z" fill="black"/>
<path d="M75.9501 111.856H69.8523V117.954H75.9501V111.856Z" fill="black"/>
<path d="M82.0478 111.856H75.9501V117.954H82.0478V111.856Z" fill="black"/>
<path d="M94.2434 111.856H88.1456V117.954H94.2434V111.856Z" fill="black"/>
<path d="M112.537 111.856H106.439L106.439 117.954H112.537V111.856Z" fill="black"/>
<path d="M118.635 111.856H112.537V117.954H118.635V111.856Z" fill="black"/>
<path d="M124.732 111.856H118.635V117.954H124.732V111.856Z" fill="black"/>
<path d="M130.83 111.856H124.732V117.954H130.83V111.856Z" fill="black"/>
<path d="M136.928 111.856H130.83V117.954H136.928V111.856Z" fill="black"/>
<path d="M143.026 111.856H136.928V117.954H143.026V111.856Z" fill="black"/>
<path d="M149.123 111.856H143.026V117.954H149.123V111.856Z" fill="black"/>
<path d="M161.319 111.856H155.221V117.954H161.319V111.856Z" fill="black"/>
<path d="M69.8523 117.954H63.7545V124.051H69.8523V117.954Z" fill="black"/>
<path d="M82.0478 117.954H75.9501V124.051H82.0478V117.954Z" fill="black"/>
<path d="M94.2434 117.954H88.1456V124.051H94.2434V117.954Z" fill="black"/>
<path d="M112.537 117.954H106.439V124.051H112.537V117.954Z" fill="black"/>
<path d="M118.635 117.954H112.537V124.051H118.635V117.954Z" fill="black"/>
<path d="M143.026 117.954H136.928V124.051H143.026V117.954Z" fill="black"/>
<path d="M149.123 117.954H143.026V124.051H149.123V117.954Z" fill="black"/>
<path d="M155.221 117.954H149.123V124.051H155.221V117.954Z" fill="black"/>
<path d="M21.0701 124.051H14.9723V130.149H21.0701V124.051Z" fill="black"/>
<path d="M27.1678 124.051H21.0701V130.149H27.1678V124.051Z" fill="black"/>
<path d="M33.2656 124.051H27.1678V130.149H33.2656V124.051Z" fill="black"/>
<path d="M39.3634 124.051H33.2656V130.149H39.3634V124.051Z" fill="black"/>
<path d="M45.4612 124.051H39.3634V130.149H45.4612V124.051Z" fill="black"/>
<path d="M51.559 124.051H45.4612V130.149H51.559V124.051Z" fill="black"/>
<path d="M57.6567 124.051H51.559V130.149H57.6567V124.051Z" fill="black"/>
<path d="M69.8523 124.051H63.7545V130.149H69.8523V124.051Z" fill="black"/>
<path d="M94.2434 124.051H88.1456V130.149H94.2434V124.051Z" fill="black"/>
<path d="M112.537 124.051H106.439V130.149H112.537V124.051Z" fill="black"/>
<path d="M118.635 124.051H112.537V130.149H118.635V124.051Z" fill="black"/>
<path d="M130.83 124.051H124.732V130.149H130.83V124.051Z" fill="black"/>
<path d="M143.026 124.051H136.928V130.149H143.026V124.051Z" fill="black"/>
<path d="M149.123 124.051H143.026V130.149H149.123V124.051Z" fill="black"/>
<path d="M155.221 124.051H149.123V130.149H155.221V124.051Z" fill="black"/>
<path d="M167.417 124.051H161.319V130.149H167.417V124.051Z" fill="black"/>
<path d="M21.0701 130.149H14.9723V136.247H21.0701V130.149Z" fill="black"/>
<path d="M57.6567 130.149H51.559L51.559 136.247H57.6567V130.149Z" fill="black"/>
<path d="M69.8523 130.149H63.7545V136.247H69.8523V130.149Z" fill="black"/>
<path d="M82.0478 130.149H75.9501V136.247H82.0478V130.149Z" fill="black"/>
<path d="M106.439 130.149H100.341V136.247H106.439L106.439 130.149Z" fill="black"/>
<path d="M118.635 130.149H112.537V136.247H118.635V130.149Z" fill="black"/>
<path d="M143.026 130.149H136.928V136.247H143.026V130.149Z" fill="black"/>
<path d="M155.221 130.149H149.123V136.247H155.221V130.149Z" fill="black"/>
<path d="M21.0701 136.247H14.9723V142.345H21.0701V136.247Z" fill="black"/>
<path d="M33.2656 136.247H27.1678V142.345H33.2656V136.247Z" fill="black"/>
<path d="M39.3634 136.247H33.2656V142.345H39.3634V136.247Z" fill="black"/>
<path d="M45.4612 136.247H39.3634V142.345H45.4612V136.247Z" fill="black"/>
<path d="M57.6567 136.247H51.559V142.345H57.6567V136.247Z" fill="black"/>
<path d="M69.8523 136.247H63.7545V142.345H69.8523V136.247Z" fill="black"/>
<path d="M75.9501 136.247H69.8523V142.345H75.9501V136.247Z" fill="black"/>
<path d="M82.0478 136.247H75.9501V142.345H82.0478V136.247Z" fill="black"/>
<path d="M100.341 136.247H94.2434V142.345H100.341V136.247Z" fill="black"/>
<path d="M106.439 136.247H100.341V142.345H106.439V136.247Z" fill="black"/>
<path d="M118.635 136.247H112.537V142.345H118.635V136.247Z" fill="black"/>
<path d="M124.732 136.247H118.635V142.345H124.732V136.247Z" fill="black"/>
<path d="M130.83 136.247H124.732V142.345H130.83V136.247Z" fill="black"/>
<path d="M136.928 136.247H130.83V142.345H136.928V136.247Z" fill="black"/>
<path d="M143.026 136.247H136.928V142.345H143.026V136.247Z" fill="black"/>
<path d="M167.417 136.247H161.319V142.345H167.417V136.247Z" fill="black"/>
<path d="M21.0701 142.345H14.9723V148.443H21.0701V142.345Z" fill="black"/>
<path d="M33.2656 142.345H27.1678V148.443H33.2656V142.345Z" fill="black"/>
<path d="M39.3634 142.345H33.2656V148.443H39.3634V142.345Z" fill="black"/>
<path d="M45.4612 142.345H39.3634V148.443H45.4612V142.345Z" fill="black"/>
<path d="M57.6567 142.345H51.559V148.443H57.6567V142.345Z" fill="black"/>
<path d="M69.8523 142.345H63.7545V148.443H69.8523V142.345Z" fill="black"/>
<path d="M94.2434 142.345H88.1456V148.443H94.2434V142.345Z" fill="black"/>
<path d="M118.635 142.345H112.537V148.443H118.635V142.345Z" fill="black"/>
<path d="M124.732 142.345H118.635V148.443H124.732V142.345Z" fill="black"/>
<path d="M149.123 142.345H143.026V148.443H149.123V142.345Z" fill="black"/>
<path d="M21.0701 148.443H14.9723V154.54H21.0701V148.443Z" fill="black"/>
<path d="M33.2656 148.443H27.1678V154.54H33.2656V148.443Z" fill="black"/>
<path d="M39.3634 148.443H33.2656V154.54H39.3634V148.443Z" fill="black"/>
<path d="M45.4612 148.443H39.3634V154.54H45.4612V148.443Z" fill="black"/>
<path d="M57.6567 148.443H51.559V154.54H57.6567V148.443Z" fill="black"/>
<path d="M88.1456 148.443H82.0478V154.54H88.1456V148.443Z" fill="black"/>
<path d="M94.2434 148.443H88.1456V154.54H94.2434V148.443Z" fill="black"/>
<path d="M106.439 148.443H100.341V154.54H106.439V148.443Z" fill="black"/>
<path d="M112.537 148.443H106.439V154.54H112.537V148.443Z" fill="black"/>
<path d="M118.635 148.443H112.537V154.54H118.635V148.443Z" fill="black"/>
<path d="M136.928 148.443H130.83V154.54H136.928V148.443Z" fill="black"/>
<path d="M143.026 148.443H136.928V154.54H143.026V148.443Z" fill="black"/>
<path d="M155.221 148.443H149.123V154.54H155.221V148.443Z" fill="black"/>
<path d="M161.319 148.443H155.221V154.54H161.319V148.443Z" fill="black"/>
<path d="M167.417 148.443H161.319V154.54H167.417V148.443Z" fill="black"/>
<path d="M21.0701 154.54H14.9723V160.638H21.0701V154.54Z" fill="black"/>
<path d="M57.6567 154.54H51.559V160.638H57.6567V154.54Z" fill="black"/>
<path d="M75.9501 154.54H69.8523V160.638H75.9501V154.54Z" fill="black"/>
<path d="M82.0478 154.54H75.9501V160.638H82.0478V154.54Z" fill="black"/>
<path d="M88.1456 154.54H82.0478V160.638H88.1456V154.54Z" fill="black"/>
<path d="M100.341 154.54H94.2434V160.638H100.341V154.54Z" fill="black"/>
<path d="M106.439 154.54H100.341V160.638H106.439V154.54Z" fill="black"/>
<path d="M124.732 154.54H118.635V160.638H124.732V154.54Z" fill="black"/>
<path d="M130.83 154.54H124.732V160.638H130.83V154.54Z" fill="black"/>
<path d="M136.928 154.54H130.83V160.638H136.928V154.54Z" fill="black"/>
<path d="M143.026 154.54H136.928V160.638H143.026V154.54Z" fill="black"/>
<path d="M155.221 154.54H149.123V160.638H155.221V154.54Z" fill="black"/>
<path d="M161.319 154.54H155.221V160.638H161.319V154.54Z" fill="black"/>
<path d="M167.417 154.54H161.319V160.638H167.417V154.54Z" fill="black"/>
<path d="M21.0701 160.638H14.9723V166.736H21.0701V160.638Z" fill="black"/>
<path d="M27.1678 160.638H21.0701V166.736H27.1678V160.638Z" fill="black"/>
<path d="M33.2656 160.638H27.1678V166.736H33.2656V160.638Z" fill="black"/>
<path d="M39.3634 160.638H33.2656V166.736H39.3634V160.638Z" fill="black"/>
<path d="M45.4612 160.638H39.3634V166.736H45.4612V160.638Z" fill="black"/>
<path d="M51.559 160.638H45.4612V166.736H51.559L51.559 160.638Z" fill="black"/>
<path d="M57.6567 160.638H51.559L51.559 166.736H57.6567V160.638Z" fill="black"/>
<path d="M69.8523 160.638H63.7545V166.736H69.8523V160.638Z" fill="black"/>
<path d="M88.1456 160.638H82.0478V166.736H88.1456V160.638Z" fill="black"/>
<path d="M94.2434 160.638H88.1456V166.736H94.2434V160.638Z" fill="black"/>
<path d="M118.635 160.638H112.537V166.736H118.635V160.638Z" fill="black"/>
<path d="M149.123 160.638H143.026V166.736H149.123V160.638Z" fill="black"/>
<path d="M167.417 160.638H161.319V166.736H167.417V160.638Z" fill="black"/>
</mask>
<g mask="url(#mask0_697_1586)">
</g>
<g filter="url(#filter0_d_697_1586)">
<rect x="10.8889" y="10.8887" width="160.611" height="7.48611" rx="3.74306" fill="#6B6AFD"/>
</g>
<defs>
<filter id="filter0_d_697_1586" x="2.67029e-05" y="-0.000217438" width="182.389" height="29.2641" filterUnits="userSpaceOnUse" color-interpolation-filters="sRGB">
<feFlood flood-opacity="0" result="BackgroundImageFix"/>
<feColorMatrix in="SourceAlpha" type="matrix" values="0 0 0 0 0 0 0 0 0 0 0 0 0 0 0 0 0 0 127 0" result="hardAlpha"/>
<feOffset/>
<feGaussianBlur stdDeviation="5.44444"/>
<feColorMatrix type="matrix" values="0 0 0 0 0.0666667 0 0 0 0 0.270588 0 0 0 0 1 0 0 0 0.5 0"/>
<feBlend mode="normal" in2="BackgroundImageFix" result="effect1_dropShadow_697_1586"/>
<feBlend mode="normal" in="SourceGraphic" in2="effect1_dropShadow_697_1586" result="shape"/>
</filter>
</defs>
</svg>
