<svg width="18" height="18" viewBox="0 0 18 18" fill="none" xmlns="http://www.w3.org/2000/svg">
<path d="M12.1425 1.5H5.8575C3.1275 1.5 1.5 3.1275 1.5 5.8575V12.135C1.5 14.8725 3.1275 16.5 5.8575 16.5H12.135C14.865 16.5 16.4925 14.8725 16.4925 12.1425V5.8575C16.5 3.1275 14.8725 1.5 12.1425 1.5ZM9 13.6875C7.6575 13.6875 6.6075 13.02 5.895 12.36V12.8925C5.895 13.2 5.64 13.455 5.3325 13.455C5.025 13.455 4.77 13.2 4.77 12.8925V10.83C4.77 10.5225 5.025 10.2675 5.3325 10.2675H7.1925C7.5 10.2675 7.755 10.5225 7.755 10.83C7.755 11.1375 7.5 11.3925 7.1925 11.3925H6.5175C7.0725 11.9475 7.935 12.5625 9 12.5625C10.965 12.5625 12.5625 10.965 12.5625 9C12.5625 8.6925 12.8175 8.4375 13.125 8.4375C13.4325 8.4375 13.6875 8.6925 13.6875 9C13.6875 11.5875 11.5875 13.6875 9 13.6875ZM13.6875 7.155C13.6875 7.1775 13.6875 7.2 13.6875 7.215C13.68 7.2975 13.6575 7.3725 13.62 7.44C13.5825 7.5075 13.53 7.5675 13.4625 7.62C13.41 7.6575 13.35 7.6875 13.2825 7.71C13.23 7.725 13.1775 7.7325 13.125 7.7325H11.3025C10.995 7.7325 10.74 7.4775 10.74 7.17C10.74 6.8625 10.995 6.6075 11.3025 6.6075H11.925C11.325 6.0525 10.3575 5.4375 9.015 5.4375C7.05 5.4375 5.4525 7.035 5.4525 9C5.4525 9.3075 5.1975 9.5625 4.89 9.5625C4.5825 9.5625 4.3125 9.3075 4.3125 9C4.3125 6.4125 6.4125 4.3125 9 4.3125C10.6125 4.3125 11.7975 5.01 12.5625 5.6775V5.1075C12.5625 4.8 12.8175 4.545 13.125 4.545C13.4325 4.545 13.6875 4.8 13.6875 5.1075V7.155Z" fill="#6B6AFD"/>
</svg>
