<svg width="7" height="7" viewBox="0 0 7 7" fill="none" xmlns="http://www.w3.org/2000/svg">
<path d="M4.00456 1.02377L4.51789 2.05044C4.58789 2.19335 4.77456 2.33044 4.93206 2.35669L5.86247 2.51127C6.45747 2.61044 6.59747 3.0421 6.16872 3.46794L5.44539 4.19127C5.32289 4.31377 5.25581 4.55002 5.29372 4.71919L5.50081 5.6146C5.66414 6.32335 5.28789 6.59752 4.66081 6.2271L3.78872 5.71085C3.63122 5.61752 3.37164 5.61752 3.21122 5.71085L2.33914 6.2271C1.71497 6.59752 1.33581 6.32044 1.49914 5.6146L1.70622 4.71919C1.74414 4.55002 1.67706 4.31377 1.55456 4.19127L0.831223 3.46794C0.40539 3.0421 0.542474 2.61044 1.13747 2.51127L2.06789 2.35669C2.22247 2.33044 2.40914 2.19335 2.47914 2.05044L2.99247 1.02377C3.27247 0.466686 3.72747 0.466686 4.00456 1.02377Z" stroke="#FF8E00" stroke-width="0.5" stroke-linecap="round" stroke-linejoin="round"/>
</svg>
