<svg width="48" height="48" viewBox="0 0 48 48" fill="none" xmlns="http://www.w3.org/2000/svg">
<g opacity="0.6">
<rect width="48" height="48" rx="24" fill="#666F8B"/>
<path d="M28.19 14H19.81C16.17 14 14 16.17 14 19.81V28.18C14 31.83 16.17 34 19.81 34H28.18C31.82 34 33.99 31.83 33.99 28.19V19.81C34 16.17 31.83 14 28.19 14ZM29.69 26.05C29.65 26.14 29.6 26.22 29.53 26.29L26.58 29.24C26.43 29.39 26.24 29.46 26.05 29.46C25.86 29.46 25.67 29.39 25.52 29.24C25.23 28.95 25.23 28.47 25.52 28.18L27.19 26.51H19C18.59 26.51 18.25 26.17 18.25 25.76C18.25 25.35 18.59 25.01 19 25.01H29C29.1 25.01 29.19 25.03 29.29 25.07C29.47 25.15 29.62 25.29 29.7 25.48C29.77 25.66 29.77 25.86 29.69 26.05ZM29 22.99H19C18.9 22.99 18.81 22.97 18.71 22.93C18.53 22.85 18.38 22.71 18.3 22.52C18.22 22.34 18.22 22.13 18.3 21.95C18.35 21.86 18.4 21.78 18.47 21.71L21.42 18.76C21.71 18.47 22.19 18.47 22.48 18.76C22.77 19.05 22.77 19.53 22.48 19.82L20.81 21.49H29C29.41 21.49 29.75 21.83 29.75 22.24C29.75 22.65 29.41 22.99 29 22.99Z" fill="white"/>
</g>
</svg>
