<svg width="38" height="38" viewBox="0 0 38 38" fill="none" xmlns="http://www.w3.org/2000/svg">
<path d="M34.1366 17.0054L31.9833 14.5037C31.5716 14.0287 31.2391 13.142 31.2391 12.5087V9.81704C31.2391 8.13871 29.8616 6.76121 28.1833 6.76121H25.4916C24.8741 6.76121 23.9716 6.42871 23.4966 6.01704L20.995 3.86371C19.9025 2.92954 18.1133 2.92954 17.005 3.86371L14.5191 6.03288C14.0441 6.42871 13.1416 6.76121 12.5241 6.76121H9.78498C8.10664 6.76121 6.72914 8.13871 6.72914 9.81704V12.5245C6.72914 13.142 6.39664 14.0287 6.00081 14.5037L3.86331 17.0212C2.94498 18.1137 2.94498 19.887 3.86331 20.9795L6.00081 23.497C6.39664 23.972 6.72914 24.8587 6.72914 25.4762V28.1837C6.72914 29.862 8.10664 31.2395 9.78498 31.2395H12.5241C13.1416 31.2395 14.0441 31.572 14.5191 31.9837L17.0208 34.137C18.1133 35.0712 19.9025 35.0712 21.0108 34.137L23.5125 31.9837C23.9875 31.572 24.8741 31.2395 25.5075 31.2395H28.1991C29.8775 31.2395 31.255 29.862 31.255 28.1837V25.492C31.255 24.8745 31.5875 23.972 31.9991 23.497L34.1525 20.9954C35.0708 19.9029 35.0708 18.0979 34.1366 17.0054ZM25.5866 16.0079L17.9391 23.6554C17.7175 23.877 17.4166 24.0037 17.1 24.0037C16.7833 24.0037 16.4825 23.877 16.2608 23.6554L12.4291 19.8237C11.97 19.3645 11.97 18.6045 12.4291 18.1454C12.8883 17.6862 13.6483 17.6862 14.1075 18.1454L17.1 21.1379L23.9083 14.3295C24.3675 13.8704 25.1275 13.8704 25.5866 14.3295C26.0458 14.7887 26.0458 15.5487 25.5866 16.0079Z" fill="white"/>
</svg>
