<svg width="16" height="16" viewBox="0 0 16 16" fill="none" xmlns="http://www.w3.org/2000/svg">
<path d="M14.6667 7.3133V8.68663C14.6667 9.0533 14.3734 9.3533 14.0001 9.36663H12.6934C11.9734 9.36663 11.3134 8.83997 11.2534 8.11997C11.2134 7.69997 11.3734 7.30663 11.6534 7.0333C11.9001 6.77997 12.2401 6.6333 12.6134 6.6333H14.0001C14.3734 6.64663 14.6667 6.94663 14.6667 7.3133Z" fill="#6B6AFD"/>
<path d="M13.6466 10.3666H12.6933C11.4266 10.3666 10.3599 9.41325 10.2533 8.19992C10.1933 7.50659 10.4466 6.81325 10.9533 6.31992C11.3799 5.87992 11.9733 5.63325 12.6133 5.63325H13.6466C13.8399 5.63325 13.9999 5.47325 13.9799 5.27992C13.8333 3.65992 12.7599 2.55325 11.1666 2.36659C11.0066 2.33992 10.8399 2.33325 10.6666 2.33325H4.66658C4.47992 2.33325 4.29992 2.34659 4.12659 2.37325C2.42659 2.58659 1.33325 3.85325 1.33325 5.66658V10.3333C1.33325 12.1733 2.82659 13.6666 4.66658 13.6666H10.6666C12.5333 13.6666 13.8199 12.4999 13.9799 10.7199C13.9999 10.5266 13.8399 10.3666 13.6466 10.3666ZM8.66658 6.49992H4.66658C4.39325 6.49992 4.16659 6.27325 4.16659 5.99992C4.16659 5.72659 4.39325 5.49992 4.66658 5.49992H8.66658C8.93992 5.49992 9.16658 5.72659 9.16658 5.99992C9.16658 6.27325 8.93992 6.49992 8.66658 6.49992Z" fill="#6B6AFD"/>
</svg>
