<svg width="18" height="18" viewBox="0 0 18 18" fill="none" xmlns="http://www.w3.org/2000/svg">
<path d="M15.1575 5.86508L9.38254 9.21008C9.15004 9.34508 8.85754 9.34508 8.61754 9.21008L2.84254 5.86508C2.43004 5.62508 2.32504 5.06258 2.64004 4.71008C2.85754 4.46258 3.10504 4.26008 3.36754 4.11758L7.43254 1.86758C8.30254 1.38008 9.71254 1.38008 10.5825 1.86758L14.6475 4.11758C14.91 4.26008 15.1575 4.47008 15.375 4.71008C15.675 5.06258 15.57 5.62508 15.1575 5.86508Z" fill="#6B6AFD"/>
<path d="M8.57249 10.6049V15.7199C8.57249 16.2899 7.99499 16.6649 7.48499 16.4174C5.93999 15.6599 3.33749 14.2424 3.33749 14.2424C2.42249 13.7249 1.67249 12.4199 1.67249 11.3474V7.47741C1.67249 6.88491 2.29499 6.50991 2.80499 6.80241L8.19749 9.92991C8.42249 10.0724 8.57249 10.3274 8.57249 10.6049Z" fill="#6B6AFD"/>
<path d="M9.42749 10.6049V15.7199C9.42749 16.2899 10.005 16.6649 10.515 16.4174C12.06 15.6599 14.6625 14.2424 14.6625 14.2424C15.5775 13.7249 16.3275 12.4199 16.3275 11.3474V7.47741C16.3275 6.88491 15.705 6.50991 15.195 6.80241L9.80249 9.92991C9.57749 10.0724 9.42749 10.3274 9.42749 10.6049Z" fill="#6B6AFD"/>
</svg>
