<svg width="20" height="20" viewBox="0 0 20 20" fill="none" xmlns="http://www.w3.org/2000/svg">
<path d="M9.37501 6.7334V9.11673L8.53334 8.82507C8.10834 8.67507 7.85001 8.5334 7.85001 7.8084C7.85001 7.21673 8.29167 6.7334 8.83334 6.7334H9.37501Z" fill="#666F8B" fill-opacity="0.6"/>
<path d="M12.15 12.1916C12.15 12.7833 11.7083 13.2666 11.1667 13.2666H10.625V10.8833L11.4667 11.175C11.8917 11.325 12.15 11.4666 12.15 12.1916Z" fill="#666F8B" fill-opacity="0.6"/>
<path d="M13.4917 1.6665H6.50832C3.47499 1.6665 1.66666 3.47484 1.66666 6.50817V13.4915C1.66666 16.5248 3.47499 18.3332 6.50832 18.3332H13.4917C16.525 18.3332 18.3333 16.5248 18.3333 13.4915V6.50817C18.3333 3.47484 16.525 1.6665 13.4917 1.6665ZM11.8833 9.99984C12.5333 10.2248 13.4 10.6998 13.4 12.1915C13.4 13.4748 12.4 14.5165 11.1667 14.5165H10.625V14.9998C10.625 15.3415 10.3417 15.6248 9.99999 15.6248C9.65832 15.6248 9.37499 15.3415 9.37499 14.9998V14.5165H9.07499C7.70832 14.5165 6.59999 13.3582 6.59999 11.9415C6.59999 11.5998 6.87499 11.3165 7.22499 11.3165C7.56666 11.3165 7.84999 11.5998 7.84999 11.9415C7.84999 12.6748 8.39999 13.2665 9.07499 13.2665H9.37499V10.4415L8.11666 9.99984C7.46666 9.77484 6.59999 9.29984 6.59999 7.80817C6.59999 6.52484 7.59999 5.48317 8.83332 5.48317H9.37499V4.99984C9.37499 4.65817 9.65832 4.37484 9.99999 4.37484C10.3417 4.37484 10.625 4.65817 10.625 4.99984V5.48317H10.925C12.2917 5.48317 13.4 6.6415 13.4 8.05817C13.4 8.39984 13.125 8.68317 12.775 8.68317C12.4333 8.68317 12.15 8.39984 12.15 8.05817C12.15 7.32484 11.6 6.73317 10.925 6.73317H10.625V9.55817L11.8833 9.99984Z" fill="#666F8B" fill-opacity="0.6"/>
</svg>
