<svg width="20" height="20" viewBox="0 0 20 20" fill="none" xmlns="http://www.w3.org/2000/svg">
<path d="M13.4917 1.66675H6.50841C3.47508 1.66675 1.66675 3.47508 1.66675 6.50841V13.4834C1.66675 16.5251 3.47508 18.3334 6.50841 18.3334H13.4834C16.5167 18.3334 18.3251 16.5251 18.3251 13.4917V6.50841C18.3334 3.47508 16.5251 1.66675 13.4917 1.66675ZM14.0667 9.60841C14.0667 9.93341 13.8084 10.1917 13.4834 10.1917C13.1584 10.1917 12.9001 9.93341 12.9001 9.60841V9.45842L10.6334 11.7251C10.5084 11.8501 10.3417 11.9084 10.1667 11.8917C9.99175 11.8751 9.83341 11.7834 9.74175 11.6334L8.89175 10.3667L6.90841 12.3501C6.79175 12.4667 6.65008 12.5167 6.50008 12.5167C6.35008 12.5167 6.20008 12.4584 6.09175 12.3501C5.86675 12.1251 5.86675 11.7584 6.09175 11.5251L8.57508 9.04175C8.70008 8.91675 8.86675 8.85841 9.04175 8.87508C9.21675 8.89175 9.37508 8.98341 9.46675 9.13341L10.3167 10.4001L12.0751 8.64175H11.9251C11.6001 8.64175 11.3417 8.38341 11.3417 8.05841C11.3417 7.73341 11.6001 7.47508 11.9251 7.47508H13.4751C13.5501 7.47508 13.6251 7.49175 13.7001 7.51675C13.8417 7.57508 13.9584 7.69175 14.0167 7.83341C14.0501 7.90841 14.0584 7.98341 14.0584 8.05841V9.60841H14.0667Z" fill="white"/>
</svg>
