<svg width="14" height="14" viewBox="0 0 14 14" fill="none" xmlns="http://www.w3.org/2000/svg">
<path d="M12.1975 6.48665V3.92581C12.1975 3.44748 11.8358 2.90498 11.3867 2.72415L8.13749 1.39415C7.40832 1.09665 6.58582 1.09665 5.85666 1.39415L2.60749 2.72415C2.16416 2.90498 1.80249 3.44748 1.80249 3.92581V6.48665C1.80249 9.33915 3.87332 12.0108 6.70249 12.7925C6.89499 12.845 7.10499 12.845 7.29749 12.7925C10.1267 12.0108 12.1975 9.33915 12.1975 6.48665ZM7.43749 7.50748V9.04165C7.43749 9.28081 7.23916 9.47915 6.99999 9.47915C6.76082 9.47915 6.56249 9.28081 6.56249 9.04165V7.50748C5.97332 7.32081 5.54166 6.77248 5.54166 6.12498C5.54166 5.31998 6.19499 4.66665 6.99999 4.66665C7.80499 4.66665 8.45832 5.31998 8.45832 6.12498C8.45832 6.77831 8.02666 7.32081 7.43749 7.50748Z" fill="white"/>
</svg>
