<svg width="20" height="20" viewBox="0 0 20 20" fill="none" xmlns="http://www.w3.org/2000/svg">
<path d="M17.0084 5.8002V7.3252C17.0084 7.85853 16.7584 8.35853 16.325 8.66686L7.15837 15.3835C6.5667 15.8169 5.75837 15.8169 5.17503 15.3752L3.97503 14.4752C3.43337 14.0669 2.9917 13.1835 2.9917 12.5085V5.8002C2.9917 4.86686 3.70837 3.83353 4.58337 3.50853L9.1417 1.8002C9.6167 1.6252 10.3834 1.6252 10.8584 1.8002L15.4167 3.50853C16.2917 3.83353 17.0084 4.86686 17.0084 5.8002Z" fill="#666F8B"/>
<path d="M15.6833 10.2834C16.2333 9.88335 17.0083 10.275 17.0083 10.9584V12.525C17.0083 13.2 16.5666 14.075 16.0249 14.4834L11.4666 17.8917C11.0666 18.1834 10.5333 18.3334 9.99993 18.3334C9.46659 18.3334 8.93326 18.1834 8.53326 17.8834L7.84159 17.3667C7.39159 17.0334 7.39159 16.3584 7.84993 16.025L15.6833 10.2834Z" fill="#666F8B"/>
</svg>
