<svg width="28" height="28" viewBox="0 0 28 28" fill="none" xmlns="http://www.w3.org/2000/svg">
<path d="M16.0182 4.09508L18.0716 8.20175C18.3516 8.77341 19.0982 9.32174 19.7282 9.42674L23.4499 10.0451C25.8299 10.4417 26.3899 12.1684 24.6749 13.8717L21.7816 16.7651C21.2916 17.2551 21.0232 18.2001 21.1749 18.8767L22.0032 22.4584C22.6566 25.2934 21.1516 26.3901 18.6432 24.9084L15.1549 22.8434C14.5249 22.4701 13.4866 22.4701 12.8449 22.8434L9.35656 24.9084C6.85989 26.3901 5.34323 25.2817 5.99656 22.4584L6.82489 18.8767C6.97656 18.2001 6.70823 17.2551 6.21823 16.7651L3.32489 13.8717C1.62156 12.1684 2.16989 10.4417 4.54989 10.0451L8.27156 9.42674C8.88989 9.32174 9.63656 8.77341 9.91656 8.20175L11.9699 4.09508C13.0899 1.86674 14.9099 1.86674 16.0182 4.09508Z" fill="#0E0636"/>
</svg>
