<svg width="16" height="16" viewBox="0 0 16 16" fill="none" xmlns="http://www.w3.org/2000/svg">
<path d="M13.2201 5.80003L10.2001 2.78003C9.56673 2.1467 8.6934 1.8067 7.80006 1.85337L4.46673 2.01337C3.1334 2.07337 2.0734 3.13337 2.00673 4.46003L1.84673 7.79337C1.80673 8.6867 2.14006 9.56003 2.7734 10.1934L5.7934 13.2134C7.0334 14.4534 9.04673 14.4534 10.2934 13.2134L13.2201 10.2867C14.4667 9.05337 14.4667 7.04003 13.2201 5.80003ZM6.3334 8.25337C5.2734 8.25337 4.4134 7.39337 4.4134 6.33337C4.4134 5.27337 5.2734 4.41337 6.3334 4.41337C7.3934 4.41337 8.2534 5.27337 8.2534 6.33337C8.2534 7.39337 7.3934 8.25337 6.3334 8.25337Z" fill="#6B6AFD"/>
</svg>
