<svg width="20" height="20" viewBox="0 0 20 20" fill="none" xmlns="http://www.w3.org/2000/svg">
<path d="M3.47495 12.7492L7.24995 16.5242C8.79995 18.0742 11.3166 18.0742 12.875 16.5242L16.5333 12.8659C18.0833 11.3159 18.0833 8.79919 16.5333 7.24085L12.75 3.47419C11.9583 2.68252 10.8666 2.25752 9.74995 2.31585L5.58328 2.51585C3.91662 2.59085 2.59162 3.91585 2.50828 5.57419L2.30828 9.74085C2.25828 10.8659 2.68328 11.9575 3.47495 12.7492Z" stroke="#666F8B" stroke-width="1.5" stroke-linecap="round" stroke-linejoin="round"/>
<path d="M7.91659 10.0007C9.06718 10.0007 9.99992 9.06791 9.99992 7.91732C9.99992 6.76672 9.06718 5.83398 7.91659 5.83398C6.76599 5.83398 5.83325 6.76672 5.83325 7.91732C5.83325 9.06791 6.76599 10.0007 7.91659 10.0007Z" stroke="#666F8B" stroke-width="1.5" stroke-linecap="round"/>
</svg>
