<svg width="16" height="16" viewBox="0 0 16 16" fill="none" xmlns="http://www.w3.org/2000/svg">
<path d="M3.33341 10C1.86008 10 0.666748 11.1933 0.666748 12.6667C0.666748 13.1667 0.806748 13.64 1.05341 14.04C1.51341 14.8133 2.36008 15.3333 3.33341 15.3333C4.30675 15.3333 5.15341 14.8133 5.61341 14.04C5.86008 13.64 6.00008 13.1667 6.00008 12.6667C6.00008 11.1933 4.80675 10 3.33341 10ZM4.32675 13.1533H3.83341V13.6733C3.83341 13.9467 3.60675 14.1733 3.33341 14.1733C3.06008 14.1733 2.83341 13.9467 2.83341 13.6733V13.1533H2.34008C2.06675 13.1533 1.84008 12.9267 1.84008 12.6533C1.84008 12.38 2.06675 12.1533 2.34008 12.1533H2.83341V11.68C2.83341 11.4067 3.06008 11.18 3.33341 11.18C3.60675 11.18 3.83341 11.4067 3.83341 11.68V12.1533H4.32675C4.60008 12.1533 4.82675 12.38 4.82675 12.6533C4.82675 12.9267 4.60675 13.1533 4.32675 13.1533Z" fill="#666F8B" fill-opacity="0.6"/>
<path d="M14.3333 8.3335H12.6666C11.9333 8.3335 11.3333 8.9335 11.3333 9.66683C11.3333 10.4002 11.9333 11.0002 12.6666 11.0002H14.3333C14.5199 11.0002 14.6666 10.8535 14.6666 10.6668V8.66683C14.6666 8.48016 14.5199 8.3335 14.3333 8.3335Z" fill="#666F8B" fill-opacity="0.6"/>
<path d="M11.0201 3.59994C11.2201 3.79327 11.0534 4.09327 10.7734 4.09327L5.25339 4.08661C4.93339 4.08661 4.77339 3.69994 5.00006 3.47327L6.16672 2.29994C7.15339 1.31994 8.74672 1.31994 9.73339 2.29994L10.9934 3.57327C11.0001 3.57994 11.0134 3.59327 11.0201 3.59994Z" fill="#666F8B" fill-opacity="0.6"/>
<path d="M14.5801 12.4398C14.1734 13.8132 13.0001 14.6665 11.4001 14.6665H7.06674C6.80674 14.6665 6.64007 14.3798 6.74674 14.1398C6.94674 13.6732 7.0734 13.1465 7.0734 12.6665C7.0734 10.6465 5.42674 8.99984 3.40674 8.99984C2.90007 8.99984 2.40674 9.1065 1.95341 9.3065C1.70674 9.41317 1.40674 9.2465 1.40674 8.97984V7.99984C1.40674 6.1865 2.50007 4.91984 4.20007 4.7065C4.36674 4.67984 4.54674 4.6665 4.7334 4.6665H11.4001C11.5734 4.6665 11.7401 4.67317 11.9001 4.69984C13.2467 4.85317 14.2201 5.67317 14.5801 6.89317C14.6467 7.11317 14.4867 7.33317 14.2601 7.33317H12.7334C11.2867 7.33317 10.1401 8.65317 10.4534 10.1532C10.6734 11.2465 11.6867 11.9998 12.8001 11.9998H14.2601C14.4934 11.9998 14.6467 12.2265 14.5801 12.4398Z" fill="#666F8B" fill-opacity="0.6"/>
</svg>
